<svg xmlns="http://www.w3.org/2000/svg" xmlns:xlink="http://www.w3.org/1999/xlink" width="600" zoomAndPan="magnify" viewBox="0 0 450 449.999984" height="600" preserveAspectRatio="xMidYMid meet" version="1.2"><defs><clipPath id="482023ff33"><path d="M 52 185 L 348 185 L 348 404.683594 L 52 404.683594 Z M 52 185 "/></clipPath><clipPath id="819f3ae5f3"><path d="M 84 93.433594 L 104 93.433594 L 104 126 L 84 126 Z M 84 93.433594 "/></clipPath><clipPath id="5c366968b2"><path d="M 81 93.433594 L 98 93.433594 L 98 113 L 81 113 Z M 81 93.433594 "/></clipPath><clipPath id="6dca107b27"><path d="M 262.5 45 L 326 45 L 326 108 L 262.5 108 Z M 262.5 45 "/></clipPath><clipPath id="b83b373d53"><path d="M 262.5 124 L 326 124 L 326 187.5 L 262.5 187.5 Z M 262.5 124 "/></clipPath><clipPath id="1dfc8877aa"><path d="M 341 124 L 405 124 L 405 187.5 L 341 187.5 Z M 341 124 "/></clipPath></defs><g id="12b763a1a8"><path style=" stroke:none;fill-rule:nonzero;fill:#ffffff;fill-opacity:1;" d="M 92.8125 132.515625 C 92.410156 132.519531 92.027344 132.59375 91.65625 132.75 C 91.285156 132.902344 90.957031 133.121094 90.675781 133.40625 C 90.390625 133.6875 90.171875 134.015625 90.019531 134.386719 C 89.867188 134.757812 89.792969 135.144531 89.792969 135.546875 L 89.792969 398.550781 C 89.792969 398.953125 89.867188 399.339844 90.019531 399.707031 C 90.171875 400.078125 90.390625 400.40625 90.675781 400.691406 C 90.957031 400.976562 91.285156 401.195312 91.65625 401.347656 C 92.027344 401.5 92.410156 401.578125 92.8125 401.578125 C 93.214844 401.578125 93.601562 401.503906 93.972656 401.351562 C 94.34375 401.195312 94.671875 400.976562 94.957031 400.695312 C 95.238281 400.410156 95.457031 400.082031 95.613281 399.710938 C 95.765625 399.339844 95.839844 398.953125 95.839844 398.550781 L 95.839844 135.546875 C 95.839844 135.144531 95.765625 134.757812 95.613281 134.386719 C 95.457031 134.015625 95.238281 133.6875 94.957031 133.402344 C 94.671875 133.117188 94.34375 132.898438 93.972656 132.746094 C 93.601562 132.59375 93.214844 132.515625 92.8125 132.515625 Z M 92.8125 132.515625 "/><path style=" stroke:none;fill-rule:nonzero;fill:#ffffff;fill-opacity:1;" d="M 48.019531 356.28125 C 47.617188 356.28125 47.234375 356.359375 46.863281 356.511719 C 46.492188 356.664062 46.167969 356.882812 45.882812 357.167969 C 45.601562 357.449219 45.382812 357.777344 45.230469 358.144531 C 45.074219 358.515625 45 358.902344 45 359.300781 C 45 359.703125 45.074219 360.085938 45.230469 360.457031 C 45.382812 360.828125 45.601562 361.152344 45.882812 361.4375 C 46.167969 361.71875 46.492188 361.9375 46.863281 362.089844 C 47.234375 362.246094 47.617188 362.320312 48.019531 362.320312 L 366.425781 362.320312 C 366.828125 362.320312 367.214844 362.246094 367.582031 362.089844 C 367.953125 361.9375 368.28125 361.71875 368.5625 361.4375 C 368.847656 361.152344 369.0625 360.828125 369.21875 360.457031 C 369.371094 360.085938 369.449219 359.703125 369.449219 359.300781 C 369.449219 358.902344 369.371094 358.515625 369.21875 358.144531 C 369.0625 357.777344 368.847656 357.449219 368.5625 357.167969 C 368.28125 356.882812 367.953125 356.664062 367.582031 356.511719 C 367.214844 356.359375 366.828125 356.28125 366.425781 356.28125 Z M 48.019531 356.28125 "/><g clip-rule="nonzero" clip-path="url(#482023ff33)"><path style=" stroke:none;fill-rule:nonzero;fill:#ffffff;fill-opacity:1;" d="M 201.726562 185.304688 C 168.734375 185.304688 142.652344 198.84375 122.511719 218.917969 C 102.375 238.992188 88.023438 265.535156 77.742188 291.96875 C 57.179688 344.839844 52.898438 397.550781 52.898438 397.550781 C 52.867188 397.953125 52.910156 398.34375 53.035156 398.726562 C 53.15625 399.109375 53.347656 399.453125 53.605469 399.757812 C 53.867188 400.066406 54.175781 400.308594 54.53125 400.492188 C 54.890625 400.675781 55.269531 400.785156 55.667969 400.816406 C 56.066406 400.847656 56.457031 400.804688 56.839844 400.679688 C 57.222656 400.558594 57.566406 400.367188 57.871094 400.105469 C 58.175781 399.847656 58.421875 399.539062 58.601562 399.183594 C 58.785156 398.824219 58.894531 398.445312 58.925781 398.046875 C 58.925781 398.046875 63.207031 346.027344 83.378906 294.160156 C 93.464844 268.226562 107.519531 242.398438 126.785156 223.195312 C 146.050781 203.992188 170.375 191.34375 201.726562 191.34375 C 233.066406 191.34375 257.15625 204.203125 276.101562 223.746094 C 295.046875 243.289062 308.683594 269.585938 318.347656 295.988281 C 337.671875 348.796875 341.097656 401.769531 341.097656 401.769531 C 341.125 402.167969 341.226562 402.550781 341.402344 402.910156 C 341.578125 403.269531 341.816406 403.582031 342.121094 403.84375 C 342.421875 404.109375 342.761719 404.308594 343.140625 404.4375 C 343.519531 404.566406 343.910156 404.617188 344.308594 404.589844 C 344.710938 404.566406 345.089844 404.464844 345.449219 404.289062 C 345.808594 404.109375 346.121094 403.871094 346.386719 403.570312 C 346.648438 403.269531 346.847656 402.929688 346.976562 402.550781 C 347.105469 402.171875 347.15625 401.78125 347.132812 401.378906 C 347.132812 401.378906 343.714844 347.730469 324.019531 293.914062 C 314.171875 267.007812 300.257812 239.984375 280.441406 219.542969 C 260.621094 199.101562 234.738281 185.304688 201.726562 185.304688 Z M 201.726562 185.304688 "/></g><path style=" stroke:none;fill-rule:nonzero;fill:#ffffff;fill-opacity:1;" d="M 351.226562 345.175781 C 350.398438 345.292969 349.730469 345.683594 349.230469 346.351562 C 348.988281 346.671875 348.816406 347.023438 348.714844 347.414062 C 348.617188 347.800781 348.59375 348.195312 348.648438 348.589844 C 348.707031 348.988281 348.835938 349.359375 349.039062 349.703125 C 349.242188 350.050781 349.503906 350.34375 349.824219 350.585938 L 364.605469 361.71875 C 364.925781 361.960938 365.277344 362.132812 365.667969 362.230469 C 366.054688 362.332031 366.449219 362.355469 366.84375 362.300781 C 367.242188 362.242188 367.613281 362.113281 367.957031 361.910156 C 368.304688 361.707031 368.597656 361.445312 368.835938 361.125 C 369.078125 360.804688 369.25 360.449219 369.351562 360.0625 C 369.449219 359.675781 369.472656 359.28125 369.417969 358.886719 C 369.359375 358.488281 369.230469 358.117188 369.027344 357.773438 C 368.824219 357.425781 368.5625 357.132812 368.242188 356.890625 L 353.460938 345.757812 C 352.796875 345.253906 352.050781 345.0625 351.226562 345.175781 Z M 351.226562 345.175781 "/><path style=" stroke:none;fill-rule:nonzero;fill:#ffffff;fill-opacity:1;" d="M 366.847656 356.3125 C 366.019531 356.195312 365.273438 356.386719 364.605469 356.890625 L 349.824219 368.019531 C 349.503906 368.261719 349.242188 368.554688 349.039062 368.898438 C 348.835938 369.246094 348.707031 369.617188 348.648438 370.011719 C 348.59375 370.410156 348.617188 370.800781 348.714844 371.191406 C 348.816406 371.578125 348.988281 371.933594 349.230469 372.253906 C 349.46875 372.574219 349.761719 372.835938 350.109375 373.039062 C 350.453125 373.242188 350.824219 373.371094 351.222656 373.425781 C 351.617188 373.484375 352.011719 373.460938 352.398438 373.359375 C 352.789062 373.257812 353.140625 373.089844 353.460938 372.847656 L 368.242188 361.71875 C 368.5625 361.476562 368.824219 361.183594 369.027344 360.839844 C 369.230469 360.496094 369.359375 360.125 369.417969 359.726562 C 369.472656 359.328125 369.449219 358.9375 369.351562 358.550781 C 369.25 358.160156 369.078125 357.808594 368.835938 357.488281 C 368.335938 356.820312 367.671875 356.429688 366.847656 356.3125 Z M 366.847656 356.3125 "/><path style=" stroke:none;fill-rule:nonzero;fill:#ffffff;fill-opacity:1;" d="M 92.394531 129.855469 C 91.566406 129.972656 90.902344 130.363281 90.402344 131.03125 L 79.265625 145.8125 C 79.027344 146.132812 78.855469 146.484375 78.753906 146.875 C 78.652344 147.261719 78.632812 147.65625 78.6875 148.050781 C 78.742188 148.449219 78.875 148.820312 79.078125 149.164062 C 79.28125 149.511719 79.542969 149.804688 79.863281 150.042969 C 80.183594 150.285156 80.535156 150.457031 80.925781 150.558594 C 81.3125 150.65625 81.703125 150.679688 82.101562 150.625 C 82.5 150.566406 82.871094 150.4375 83.214844 150.234375 C 83.558594 150.03125 83.855469 149.769531 84.09375 149.449219 L 95.230469 134.667969 C 95.472656 134.347656 95.644531 133.992188 95.742188 133.605469 C 95.84375 133.21875 95.867188 132.824219 95.808594 132.429688 C 95.753906 132.03125 95.625 131.660156 95.421875 131.316406 C 95.21875 130.96875 94.957031 130.675781 94.636719 130.433594 C 93.96875 129.933594 93.222656 129.738281 92.394531 129.855469 Z M 92.394531 129.855469 "/><path style=" stroke:none;fill-rule:nonzero;fill:#ffffff;fill-opacity:1;" d="M 93.238281 129.855469 C 92.414062 129.738281 91.664062 129.933594 90.996094 130.433594 C 90.675781 130.675781 90.414062 130.96875 90.210938 131.316406 C 90.007812 131.660156 89.878906 132.03125 89.824219 132.429688 C 89.765625 132.824219 89.789062 133.21875 89.890625 133.605469 C 89.992188 133.992188 90.160156 134.347656 90.402344 134.667969 L 101.539062 149.449219 C 101.78125 149.769531 102.074219 150.03125 102.417969 150.230469 C 102.761719 150.433594 103.132812 150.5625 103.527344 150.621094 C 103.925781 150.675781 104.316406 150.652344 104.703125 150.554688 C 105.089844 150.453125 105.445312 150.285156 105.761719 150.042969 C 106.085938 149.804688 106.347656 149.511719 106.550781 149.164062 C 106.753906 148.820312 106.886719 148.449219 106.941406 148.054688 C 107 147.65625 106.976562 147.261719 106.878906 146.875 C 106.777344 146.488281 106.605469 146.132812 106.367188 145.8125 L 95.230469 131.03125 C 94.730469 130.363281 94.066406 129.972656 93.238281 129.855469 Z M 93.238281 129.855469 "/><path style=" stroke:none;fill-rule:nonzero;fill:#ffffff;fill-opacity:1;" d="M 393.832031 349.210938 L 377.921875 365.121094 C 377.636719 365.40625 377.417969 365.730469 377.265625 366.101562 C 377.109375 366.472656 377.035156 366.859375 377.035156 367.261719 C 377.035156 367.660156 377.109375 368.046875 377.265625 368.417969 C 377.417969 368.789062 377.636719 369.117188 377.921875 369.398438 C 378.203125 369.683594 378.53125 369.902344 378.902344 370.054688 C 379.273438 370.207031 379.65625 370.285156 380.058594 370.285156 C 380.457031 370.285156 380.84375 370.207031 381.210938 370.054688 C 381.582031 369.902344 381.910156 369.683594 382.191406 369.398438 L 398.101562 353.480469 C 398.386719 353.199219 398.605469 352.871094 398.757812 352.503906 C 398.910156 352.132812 398.988281 351.746094 398.988281 351.347656 C 398.988281 350.945312 398.910156 350.5625 398.757812 350.191406 C 398.605469 349.820312 398.386719 349.496094 398.101562 349.210938 C 397.820312 348.929688 397.492188 348.710938 397.121094 348.558594 C 396.753906 348.402344 396.367188 348.328125 395.96875 348.328125 C 395.566406 348.328125 395.183594 348.402344 394.8125 348.558594 C 394.441406 348.710938 394.113281 348.929688 393.832031 349.210938 Z M 393.832031 349.210938 "/><path style=" stroke:none;fill-rule:nonzero;fill:#ffffff;fill-opacity:1;" d="M 377.921875 349.210938 C 377.640625 349.496094 377.421875 349.820312 377.269531 350.191406 C 377.113281 350.5625 377.039062 350.945312 377.039062 351.347656 C 377.039062 351.746094 377.113281 352.132812 377.269531 352.503906 C 377.421875 352.871094 377.640625 353.199219 377.921875 353.480469 L 393.832031 369.398438 C 394.113281 369.683594 394.441406 369.902344 394.8125 370.054688 C 395.183594 370.207031 395.566406 370.285156 395.96875 370.285156 C 396.367188 370.285156 396.753906 370.207031 397.121094 370.054688 C 397.492188 369.902344 397.820312 369.683594 398.101562 369.398438 C 398.386719 369.117188 398.605469 368.789062 398.761719 368.417969 C 398.914062 368.046875 398.992188 367.660156 398.992188 367.261719 C 398.992188 366.859375 398.914062 366.472656 398.761719 366.101562 C 398.605469 365.730469 398.386719 365.40625 398.101562 365.121094 L 382.191406 349.210938 C 381.910156 348.929688 381.582031 348.710938 381.210938 348.558594 C 380.84375 348.402344 380.457031 348.328125 380.058594 348.328125 C 379.65625 348.328125 379.273438 348.402344 378.902344 348.558594 C 378.53125 348.710938 378.203125 348.929688 377.921875 349.210938 Z M 377.921875 349.210938 "/><g clip-rule="nonzero" clip-path="url(#819f3ae5f3)"><path style=" stroke:none;fill-rule:nonzero;fill:#ffffff;fill-opacity:1;" d="M 102.195312 94.191406 C 101.839844 94.003906 101.464844 93.890625 101.066406 93.851562 C 100.667969 93.8125 100.277344 93.851562 99.894531 93.964844 C 99.507812 94.082031 99.164062 94.269531 98.851562 94.523438 C 98.542969 94.777344 98.292969 95.082031 98.105469 95.433594 L 84.582031 120.785156 C 84.394531 121.140625 84.28125 121.515625 84.242188 121.914062 C 84.203125 122.3125 84.242188 122.703125 84.359375 123.089844 C 84.476562 123.472656 84.660156 123.816406 84.914062 124.128906 C 85.167969 124.4375 85.472656 124.6875 85.828125 124.875 C 86.179688 125.0625 86.554688 125.175781 86.953125 125.214844 C 87.351562 125.253906 87.746094 125.214844 88.128906 125.101562 C 88.511719 124.984375 88.859375 124.796875 89.167969 124.542969 C 89.476562 124.289062 89.726562 123.984375 89.914062 123.632812 L 103.4375 98.28125 C 103.625 97.925781 103.738281 97.550781 103.777344 97.152344 C 103.816406 96.753906 103.777344 96.359375 103.660156 95.976562 C 103.546875 95.59375 103.359375 95.25 103.105469 94.9375 C 102.851562 94.628906 102.546875 94.378906 102.195312 94.191406 Z M 102.195312 94.191406 "/></g><g clip-rule="nonzero" clip-path="url(#5c366968b2)"><path style=" stroke:none;fill-rule:nonzero;fill:#ffffff;fill-opacity:1;" d="M 85.339844 93.871094 C 84.515625 93.738281 83.765625 93.917969 83.089844 94.40625 C 82.761719 94.640625 82.496094 94.929688 82.285156 95.269531 C 82.074219 95.609375 81.9375 95.980469 81.871094 96.375 C 81.808594 96.773438 81.824219 97.167969 81.917969 97.558594 C 82.007812 97.949219 82.175781 98.304688 82.410156 98.628906 L 91.5625 111.304688 C 91.796875 111.632812 92.085938 111.898438 92.425781 112.109375 C 92.765625 112.316406 93.136719 112.453125 93.53125 112.519531 C 93.925781 112.582031 94.316406 112.566406 94.707031 112.476562 C 95.097656 112.382812 95.453125 112.21875 95.78125 111.984375 C 96.105469 111.75 96.371094 111.460938 96.582031 111.121094 C 96.792969 110.78125 96.929688 110.414062 96.992188 110.015625 C 97.054688 109.621094 97.042969 109.230469 96.949219 108.839844 C 96.855469 108.449219 96.691406 108.09375 96.457031 107.765625 L 87.3125 95.089844 C 86.824219 94.410156 86.164062 94.003906 85.339844 93.871094 Z M 85.339844 93.871094 "/></g><g clip-rule="nonzero" clip-path="url(#6dca107b27)"><path style=" stroke:none;fill-rule:nonzero;fill:#ffffff;fill-opacity:1;" d="M 314.03125 45 L 274.769531 45 C 268.265625 45 262.972656 50.292969 262.972656 56.796875 L 262.972656 96.058594 C 262.972656 102.5625 268.265625 107.855469 274.769531 107.855469 L 314.03125 107.855469 C 320.535156 107.855469 325.828125 102.5625 325.828125 96.058594 L 325.828125 56.796875 C 325.828125 50.292969 320.539062 45 314.03125 45 Z M 321.109375 96.058594 C 321.109375 99.960938 317.933594 103.136719 314.03125 103.136719 L 274.769531 103.136719 C 270.867188 103.136719 267.691406 99.960938 267.691406 96.058594 L 267.691406 56.796875 C 267.691406 52.894531 270.867188 49.71875 274.769531 49.71875 L 314.03125 49.71875 C 317.933594 49.71875 321.109375 52.894531 321.109375 56.796875 Z M 321.109375 96.058594 "/></g><path style=" stroke:none;fill-rule:nonzero;fill:#ffffff;fill-opacity:1;" d="M 392.730469 45 L 353.46875 45 C 346.960938 45 341.671875 50.292969 341.671875 56.796875 L 341.671875 96.058594 C 341.671875 102.5625 346.960938 107.855469 353.46875 107.855469 L 392.730469 107.855469 C 399.238281 107.855469 404.527344 102.5625 404.527344 96.058594 L 404.527344 56.796875 C 404.527344 50.292969 399.238281 45 392.730469 45 Z M 399.808594 96.058594 C 399.808594 99.960938 396.632812 103.136719 392.730469 103.136719 L 353.46875 103.136719 C 349.566406 103.136719 346.390625 99.960938 346.390625 96.058594 L 346.390625 56.796875 C 346.390625 52.894531 349.566406 49.71875 353.46875 49.71875 L 392.730469 49.71875 C 396.632812 49.71875 399.808594 52.894531 399.808594 56.796875 Z M 399.808594 96.058594 "/><g clip-rule="nonzero" clip-path="url(#b83b373d53)"><path style=" stroke:none;fill-rule:nonzero;fill:#ffffff;fill-opacity:1;" d="M 314.03125 124.457031 L 274.769531 124.457031 C 268.265625 124.457031 262.972656 129.75 262.972656 136.25 L 262.972656 175.515625 C 262.972656 182.015625 268.265625 187.3125 274.769531 187.3125 L 314.03125 187.3125 C 320.535156 187.3125 325.828125 182.015625 325.828125 175.515625 L 325.828125 136.25 C 325.828125 129.75 320.539062 124.457031 314.03125 124.457031 Z M 321.109375 175.519531 C 321.109375 179.421875 317.933594 182.597656 314.03125 182.597656 L 274.769531 182.597656 C 270.867188 182.597656 267.691406 179.421875 267.691406 175.519531 L 267.691406 136.257812 C 267.691406 132.355469 270.867188 129.179688 274.769531 129.179688 L 314.03125 129.179688 C 317.933594 129.179688 321.109375 132.355469 321.109375 136.257812 Z M 321.109375 175.519531 "/></g><g clip-rule="nonzero" clip-path="url(#1dfc8877aa)"><path style=" stroke:none;fill-rule:nonzero;fill:#ffffff;fill-opacity:1;" d="M 392.730469 124.457031 L 353.46875 124.457031 C 346.960938 124.457031 341.671875 129.75 341.671875 136.25 L 341.671875 175.515625 C 341.671875 182.015625 346.960938 187.3125 353.46875 187.3125 L 392.730469 187.3125 C 399.238281 187.3125 404.527344 182.015625 404.527344 175.515625 L 404.527344 136.25 C 404.527344 129.75 399.238281 124.457031 392.730469 124.457031 Z M 399.808594 175.519531 C 399.808594 179.421875 396.632812 182.597656 392.730469 182.597656 L 353.46875 182.597656 C 349.566406 182.597656 346.390625 179.421875 346.390625 175.519531 L 346.390625 136.257812 C 346.390625 132.355469 349.566406 129.179688 353.46875 129.179688 L 392.730469 129.179688 C 396.632812 129.179688 399.808594 132.355469 399.808594 136.257812 Z M 399.808594 175.519531 "/></g><path style=" stroke:none;fill-rule:nonzero;fill:#ffffff;fill-opacity:1;" d="M 312.980469 74.070312 L 296.761719 74.070312 L 296.761719 57.847656 C 296.761719 56.546875 295.703125 55.488281 294.402344 55.488281 C 293.101562 55.488281 292.042969 56.546875 292.042969 57.847656 L 292.042969 74.070312 L 275.820312 74.070312 C 274.519531 74.070312 273.460938 75.128906 273.460938 76.429688 C 273.460938 77.734375 274.519531 78.789062 275.820312 78.789062 L 292.042969 78.789062 L 292.042969 95.011719 C 292.042969 96.3125 293.101562 97.371094 294.402344 97.371094 C 295.703125 97.371094 296.761719 96.3125 296.761719 95.011719 L 296.761719 78.789062 L 312.984375 78.789062 C 314.285156 78.789062 315.34375 77.734375 315.34375 76.429688 C 315.34375 75.128906 314.285156 74.070312 312.980469 74.070312 Z M 312.980469 74.070312 "/><path style=" stroke:none;fill-rule:nonzero;fill:#ffffff;fill-opacity:1;" d="M 388.664062 142.386719 C 387.746094 141.464844 386.25 141.464844 385.328125 142.386719 L 373.859375 153.855469 L 362.386719 142.386719 C 361.464844 141.464844 359.972656 141.464844 359.050781 142.386719 C 358.128906 143.304688 358.128906 144.800781 359.050781 145.722656 L 370.523438 157.191406 L 359.050781 168.664062 C 358.128906 169.582031 358.128906 171.078125 359.050781 172 C 359.511719 172.460938 360.117188 172.6875 360.722656 172.6875 C 361.324219 172.6875 361.929688 172.457031 362.390625 172 L 373.863281 160.527344 L 385.332031 172 C 385.796875 172.460938 386.398438 172.6875 387.003906 172.6875 C 387.605469 172.6875 388.210938 172.457031 388.671875 172 C 389.59375 171.078125 389.59375 169.582031 388.671875 168.664062 L 377.203125 157.191406 L 388.671875 145.722656 C 389.585938 144.800781 389.585938 143.304688 388.664062 142.386719 Z M 388.664062 142.386719 "/><path style=" stroke:none;fill-rule:nonzero;fill:#ffffff;fill-opacity:1;" d="M 309.203125 141.078125 C 308.285156 140.160156 306.789062 140.160156 305.867188 141.078125 L 279.59375 167.351562 C 278.675781 168.273438 278.675781 169.769531 279.59375 170.6875 C 280.058594 171.148438 280.660156 171.375 281.265625 171.375 C 281.871094 171.375 282.472656 171.144531 282.9375 170.6875 L 309.207031 144.414062 C 310.128906 143.496094 310.128906 142.003906 309.203125 141.078125 Z M 309.203125 141.078125 "/><path style=" stroke:none;fill-rule:nonzero;fill:#ffffff;fill-opacity:1;" d="M 392.4375 74.070312 L 355.28125 74.070312 C 353.976562 74.070312 352.921875 75.128906 352.921875 76.429688 C 352.921875 77.734375 353.976562 78.789062 355.28125 78.789062 L 392.4375 78.789062 C 393.742188 78.789062 394.796875 77.734375 394.796875 76.429688 C 394.796875 75.128906 393.742188 74.070312 392.4375 74.070312 Z M 392.4375 74.070312 "/><path style=" stroke:none;fill-rule:nonzero;fill:#ffffff;fill-opacity:1;" d="M 292.71875 144.679688 C 292.71875 140.035156 288.9375 136.25 284.289062 136.25 C 279.640625 136.25 275.863281 140.03125 275.863281 144.679688 C 275.863281 149.328125 279.640625 153.105469 284.289062 153.105469 C 288.933594 153.105469 292.71875 149.320312 292.71875 144.679688 Z M 280.582031 144.679688 C 280.582031 142.636719 282.246094 140.96875 284.289062 140.96875 C 286.332031 140.96875 288 142.636719 288 144.679688 C 288 146.722656 286.332031 148.386719 284.289062 148.386719 C 282.242188 148.386719 280.582031 146.722656 280.582031 144.679688 Z M 280.582031 144.679688 "/><path style=" stroke:none;fill-rule:nonzero;fill:#ffffff;fill-opacity:1;" d="M 305.335938 158.628906 C 300.691406 158.628906 296.90625 162.40625 296.90625 167.054688 C 296.90625 171.703125 300.6875 175.480469 305.335938 175.480469 C 309.984375 175.480469 313.761719 171.703125 313.761719 167.054688 C 313.761719 162.40625 309.976562 158.628906 305.335938 158.628906 Z M 305.335938 170.757812 C 303.292969 170.757812 301.625 169.09375 301.625 167.050781 C 301.625 165.007812 303.292969 163.339844 305.335938 163.339844 C 307.378906 163.339844 309.042969 165.007812 309.042969 167.050781 C 309.042969 169.09375 307.378906 170.757812 305.335938 170.757812 Z M 305.335938 170.757812 "/></g></svg>