<svg xmlns="http://www.w3.org/2000/svg" xmlns:xlink="http://www.w3.org/1999/xlink" width="600" zoomAndPan="magnify" viewBox="0 0 450 449.999984" height="600" preserveAspectRatio="xMidYMid meet" version="1.2"><defs><clipPath id="fb0fb9ac9c"><path d="M 20 14.59375 L 430.105469 14.59375 L 430.105469 435.34375 L 20 435.34375 Z M 20 14.59375 "/></clipPath></defs><g id="eee6caee6f"><path style="fill:none;stroke-width:1;stroke-linecap:butt;stroke-linejoin:miter;stroke:#000000;stroke-opacity:1;stroke-miterlimit:4;" d="M -0.00014027 0.502065 L 10.765486 0.502065 " transform="matrix(0,0.75,-0.75,0,175.091392,207.95323)"/><g clip-rule="nonzero" clip-path="url(#fb0fb9ac9c)"><path style=" stroke:none;fill-rule:nonzero;fill:#000000;fill-opacity:1;" d="M 217.53125 435.242188 C 217.53125 435.242188 217.328125 435.242188 217.328125 435.242188 L 216.316406 435.242188 C 212.972656 435.039062 210.339844 432.203125 210.539062 428.859375 C 210.640625 425.515625 213.582031 422.882812 216.921875 423.085938 L 217.9375 423.085938 C 221.28125 423.289062 223.914062 426.125 223.8125 429.46875 C 223.710938 432.710938 220.976562 435.34375 217.734375 435.34375 Z M 245.902344 434.230469 C 242.859375 434.230469 240.226562 431.898438 239.820312 428.757812 C 239.519531 425.414062 241.847656 422.476562 245.191406 422.070312 L 246.101562 422.070312 C 249.445312 421.566406 252.484375 423.996094 252.789062 427.339844 C 253.195312 430.683594 250.765625 433.722656 247.421875 434.027344 L 246.304688 434.027344 C 246.101562 434.128906 245.902344 434.230469 245.699219 434.230469 Z M 188.25 431.898438 C 187.84375 431.898438 187.542969 431.898438 187.136719 431.796875 L 186.125 431.59375 C 182.78125 430.988281 180.652344 427.746094 181.359375 424.503906 C 181.96875 421.160156 185.210938 419.03125 188.453125 419.742188 L 189.367188 419.945312 C 192.707031 420.550781 194.835938 423.792969 194.230469 427.035156 C 193.722656 429.972656 191.085938 432 188.25 432 Z M 274.878906 428.859375 C 272.140625 428.859375 269.710938 427.035156 269 424.300781 C 268.191406 421.058594 270.117188 417.714844 273.359375 416.90625 L 274.269531 416.703125 C 277.511719 415.789062 280.855469 417.714844 281.765625 420.957031 C 282.679688 424.199219 280.753906 427.542969 277.511719 428.453125 L 276.5 428.757812 C 275.992188 428.859375 275.484375 428.960938 274.980469 428.960938 Z M 159.882812 424.300781 C 159.171875 424.300781 158.566406 424.199219 157.855469 423.996094 L 156.84375 423.691406 C 153.703125 422.578125 152.082031 419.03125 153.195312 415.890625 C 154.308594 412.75 157.855469 411.128906 160.996094 412.246094 L 161.910156 412.546875 C 165.050781 413.664062 166.773438 417.105469 165.554688 420.347656 C 164.644531 422.882812 162.3125 424.402344 159.78125 424.402344 Z M 302.738281 419.234375 C 300.410156 419.234375 298.179688 417.917969 297.167969 415.585938 C 295.851562 412.546875 297.167969 408.902344 300.308594 407.582031 L 301.21875 407.179688 C 304.257812 405.863281 307.90625 407.179688 309.222656 410.320312 C 310.542969 413.359375 309.222656 417.007812 306.082031 418.324219 L 305.171875 418.726562 C 304.359375 419.03125 303.550781 419.234375 302.738281 419.234375 Z M 132.929688 412.445312 C 131.917969 412.445312 131.007812 412.246094 130.09375 411.738281 L 129.183594 411.230469 C 126.246094 409.609375 125.128906 405.960938 126.75 403.023438 C 128.371094 400.085938 132.019531 398.972656 134.957031 400.59375 L 135.871094 401.101562 C 138.808594 402.722656 139.921875 406.367188 138.402344 409.304688 C 137.289062 411.332031 135.160156 412.546875 133.03125 412.546875 Z M 328.777344 405.457031 C 326.753906 405.457031 324.828125 404.441406 323.613281 402.621094 C 321.789062 399.78125 322.699219 396.035156 325.535156 394.210938 L 326.347656 393.703125 C 329.183594 391.878906 332.933594 392.792969 334.757812 395.628906 C 336.578125 398.464844 335.667969 402.214844 332.832031 404.039062 L 331.917969 404.542969 C 330.90625 405.152344 329.792969 405.457031 328.675781 405.457031 Z M 108.109375 396.640625 C 106.894531 396.640625 105.574219 396.238281 104.460938 395.425781 L 103.652344 394.820312 C 101.015625 392.792969 100.410156 388.941406 102.433594 386.308594 C 104.460938 383.675781 108.3125 383.066406 110.945312 385.09375 L 111.757812 385.699219 C 114.492188 387.726562 115 391.476562 112.972656 394.210938 C 111.757812 395.832031 109.933594 396.640625 108.109375 396.640625 Z M 352.488281 388.03125 C 350.765625 388.03125 349.042969 387.320312 347.828125 385.902344 C 345.597656 383.371094 345.902344 379.519531 348.535156 377.292969 L 349.246094 376.683594 C 351.777344 374.453125 355.628906 374.757812 357.855469 377.292969 C 360.085938 379.824219 359.78125 383.675781 357.25 385.902344 L 356.4375 386.613281 C 355.324219 387.625 353.90625 388.03125 352.488281 388.03125 Z M 85.820312 377.394531 C 84.300781 377.394531 82.679688 376.785156 81.5625 375.570312 L 80.855469 374.859375 C 78.523438 372.429688 78.523438 368.578125 80.855469 366.25 C 83.285156 363.917969 87.136719 363.917969 89.464844 366.25 L 90.175781 366.957031 C 92.503906 369.289062 92.503906 373.136719 90.175781 375.570312 C 88.960938 376.785156 87.441406 377.394531 85.921875 377.394531 Z M 373.359375 367.261719 C 371.941406 367.261719 370.519531 366.753906 369.40625 365.742188 C 366.875 363.511719 366.570312 359.664062 368.800781 357.128906 L 369.40625 356.421875 C 371.636719 353.886719 375.484375 353.585938 378.019531 355.8125 C 380.550781 358.042969 380.855469 361.890625 378.625 364.425781 L 377.917969 365.234375 C 376.703125 366.652344 374.980469 367.363281 373.359375 367.363281 Z M 66.566406 355.105469 C 64.746094 355.105469 62.921875 354.292969 61.703125 352.671875 L 61.097656 351.863281 C 59.070312 349.125 59.679688 345.378906 62.414062 343.351562 C 65.148438 341.324219 68.898438 341.933594 70.925781 344.667969 L 71.53125 345.480469 C 73.558594 348.214844 72.953125 351.964844 70.316406 353.988281 C 69.203125 354.800781 67.988281 355.207031 66.667969 355.207031 Z M 391.089844 343.757812 C 389.972656 343.757812 388.859375 343.453125 387.847656 342.742188 C 385.011719 340.921875 384.199219 337.171875 386.023438 334.335938 L 386.53125 333.523438 C 388.351562 330.6875 392.101562 329.878906 394.9375 331.699219 C 397.777344 333.523438 398.585938 337.273438 396.761719 340.109375 L 396.15625 341.023438 C 395.039062 342.84375 393.015625 343.757812 391.089844 343.757812 Z M 50.761719 330.382812 C 48.636719 330.382812 46.507812 329.269531 45.394531 327.242188 L 44.886719 326.332031 C 43.265625 323.394531 44.378906 319.644531 47.316406 318.125 C 50.257812 316.503906 54.003906 317.617188 55.523438 320.65625 L 56.03125 321.570312 C 57.652344 324.507812 56.539062 328.257812 53.601562 329.777344 C 52.6875 330.28125 51.675781 330.484375 50.660156 330.484375 Z M 405.273438 317.921875 C 404.460938 317.921875 403.550781 317.71875 402.742188 317.414062 C 399.699219 315.996094 398.382812 312.453125 399.699219 309.3125 L 400.105469 308.398438 C 401.523438 305.359375 405.070312 303.941406 408.109375 305.359375 C 411.148438 306.777344 412.566406 310.324219 411.148438 313.363281 L 410.746094 314.273438 C 409.730469 316.503906 407.503906 317.820312 405.171875 317.820312 Z M 38.605469 303.535156 C 36.171875 303.535156 33.84375 302.015625 32.929688 299.585938 L 32.527344 298.570312 C 31.410156 295.429688 33.03125 291.886719 36.171875 290.769531 C 39.3125 289.65625 42.859375 291.277344 43.972656 294.417969 L 44.277344 295.328125 C 45.394531 298.46875 43.875 302.015625 40.632812 303.128906 C 39.921875 303.433594 39.210938 303.535156 38.503906 303.535156 Z M 415.609375 290.367188 C 415 290.367188 414.492188 290.367188 413.886719 290.164062 C 410.644531 289.25 408.820312 285.804688 409.730469 282.664062 L 410.035156 281.753906 C 410.945312 278.511719 414.289062 276.6875 417.53125 277.601562 C 420.773438 278.511719 422.597656 281.855469 421.6875 285.097656 L 421.382812 286.109375 C 420.574219 288.746094 418.140625 290.464844 415.507812 290.464844 Z M 30.398438 275.269531 C 27.5625 275.269531 25.027344 273.34375 24.421875 270.507812 L 24.21875 269.496094 C 23.507812 266.253906 25.636719 263.011719 28.878906 262.300781 C 32.121094 261.59375 35.363281 263.71875 36.070312 266.960938 L 36.273438 267.875 C 36.984375 271.117188 34.855469 274.359375 31.613281 275.066406 C 31.207031 275.066406 30.804688 275.167969 30.296875 275.167969 Z M 421.890625 261.59375 C 421.585938 261.59375 421.28125 261.59375 420.976562 261.59375 C 417.632812 261.085938 415.304688 258.046875 415.808594 254.703125 L 415.808594 253.691406 C 416.417969 250.347656 419.457031 248.015625 422.800781 248.523438 C 426.144531 249.03125 428.476562 252.070312 427.96875 255.414062 L 427.96875 256.425781 C 427.359375 259.464844 424.828125 261.59375 421.789062 261.59375 Z M 26.242188 245.992188 C 23.101562 245.992188 20.367188 243.558594 20.164062 240.316406 L 20.164062 239.304688 C 19.859375 235.960938 22.394531 233.023438 25.738281 232.820312 C 29.082031 232.617188 32.019531 235.148438 32.222656 238.492188 L 32.222656 239.507812 C 32.527344 242.851562 29.992188 245.789062 26.648438 245.992188 C 26.546875 245.992188 26.34375 245.992188 26.242188 245.992188 Z M 424.015625 232.109375 C 420.671875 232.109375 417.9375 229.375 417.9375 226.03125 L 417.9375 225.019531 C 417.9375 225.019531 417.9375 224.613281 417.9375 224.613281 C 417.9375 221.269531 420.671875 218.535156 424.015625 218.535156 C 427.359375 218.535156 430.097656 221.269531 430.097656 224.613281 L 430.097656 225.019531 C 430.097656 225.019531 430.097656 226.132812 430.097656 226.132812 C 430.097656 229.476562 427.359375 232.210938 424.015625 232.210938 Z M 26.140625 216.609375 C 26.042969 216.609375 25.839844 216.609375 25.738281 216.609375 C 22.394531 216.40625 19.859375 213.46875 20.0625 210.125 L 20.0625 209.113281 C 20.367188 205.769531 23.304688 203.238281 26.648438 203.539062 C 29.992188 203.742188 32.527344 206.679688 32.222656 210.023438 L 32.222656 211.039062 C 31.917969 214.28125 29.285156 216.710938 26.140625 216.710938 Z M 421.992188 202.324219 C 419.050781 202.324219 416.417969 200.097656 416.011719 197.058594 L 416.011719 196.042969 C 415.40625 192.699219 417.734375 189.660156 421.078125 189.15625 C 424.421875 188.648438 427.460938 190.976562 427.96875 194.320312 L 427.96875 195.335938 C 428.578125 198.679688 426.246094 201.71875 422.902344 202.222656 C 422.597656 202.222656 422.292969 202.222656 422.09375 202.222656 Z M 30.296875 187.433594 C 29.890625 187.433594 29.484375 187.433594 29.082031 187.332031 C 25.839844 186.621094 23.710938 183.378906 24.421875 180.136719 L 24.621094 179.125 C 25.332031 175.882812 28.574219 173.753906 31.816406 174.464844 C 35.058594 175.171875 37.1875 178.414062 36.476562 181.65625 L 36.273438 182.570312 C 35.667969 185.40625 33.132812 187.433594 30.296875 187.433594 Z M 416.011719 173.550781 C 413.378906 173.550781 410.945312 171.832031 410.136719 169.09375 L 409.832031 168.183594 C 408.921875 164.941406 410.746094 161.597656 413.988281 160.6875 C 417.230469 159.773438 420.574219 161.597656 421.484375 164.839844 L 421.789062 165.851562 C 422.699219 169.09375 420.875 172.4375 417.632812 173.351562 C 417.027344 173.550781 416.519531 173.550781 416.011719 173.550781 Z M 38.503906 159.167969 C 37.792969 159.167969 37.085938 159.066406 36.375 158.761719 C 33.234375 157.644531 31.613281 154.101562 32.726562 150.960938 L 33.132812 149.945312 C 34.347656 146.804688 37.792969 145.183594 40.933594 146.402344 C 44.074219 147.617188 45.695312 151.0625 44.480469 154.203125 L 44.175781 155.113281 C 43.265625 157.546875 40.933594 159.066406 38.503906 159.066406 Z M 405.984375 145.894531 C 403.652344 145.894531 401.421875 144.578125 400.410156 142.246094 L 400.003906 141.335938 C 398.585938 138.296875 400.003906 134.648438 403.042969 133.332031 C 406.085938 131.914062 409.730469 133.332031 411.046875 136.371094 L 411.453125 137.382812 C 412.871094 140.421875 411.453125 144.070312 408.414062 145.386719 C 407.605469 145.792969 406.792969 145.894531 405.984375 145.894531 Z M 50.558594 132.21875 C 49.546875 132.21875 48.636719 132.015625 47.722656 131.507812 C 44.785156 129.886719 43.671875 126.238281 45.292969 123.300781 L 45.796875 122.390625 C 47.417969 119.453125 51.066406 118.335938 54.003906 119.957031 C 56.941406 121.578125 58.058594 125.226562 56.4375 128.164062 L 55.929688 129.078125 C 54.816406 131.101562 52.6875 132.21875 50.558594 132.21875 Z M 392 119.855469 C 389.972656 119.855469 388.050781 118.84375 386.832031 117.019531 L 386.328125 116.210938 C 384.503906 113.371094 385.3125 109.625 388.152344 107.800781 C 390.988281 105.976562 394.738281 106.789062 396.558594 109.625 L 397.066406 110.535156 C 398.890625 113.371094 398.078125 117.121094 395.242188 118.945312 C 394.230469 119.554688 393.117188 119.855469 392 119.855469 Z M 66.367188 107.394531 C 65.148438 107.394531 63.832031 106.988281 62.71875 106.179688 C 59.984375 104.152344 59.476562 100.40625 61.503906 97.667969 L 62.109375 96.859375 C 64.136719 94.226562 67.988281 93.617188 70.621094 95.644531 C 73.253906 97.667969 73.863281 101.519531 71.835938 104.152344 L 71.230469 104.964844 C 70.011719 106.585938 68.1875 107.394531 66.367188 107.394531 Z M 374.472656 96.25 C 372.75 96.25 371.027344 95.542969 369.8125 94.125 L 369.203125 93.414062 C 366.976562 90.882812 367.28125 87.03125 369.8125 84.804688 C 372.34375 82.574219 376.195312 82.878906 378.425781 85.410156 L 379.132812 86.222656 C 381.363281 88.753906 381.058594 92.605469 378.425781 94.832031 C 377.308594 95.847656 375.890625 96.25 374.472656 96.25 Z M 85.617188 85.105469 C 84.097656 85.105469 82.476562 84.5 81.359375 83.28125 C 79.03125 80.953125 79.03125 77.101562 81.359375 74.671875 L 82.070312 73.960938 C 84.5 71.632812 88.25 71.632812 90.683594 73.960938 C 93.011719 76.394531 93.011719 80.140625 90.683594 82.574219 L 89.972656 83.28125 C 88.757812 84.5 87.238281 85.105469 85.71875 85.105469 Z M 353.703125 75.378906 C 352.285156 75.378906 350.867188 74.875 349.648438 73.859375 L 348.941406 73.253906 C 346.40625 71.023438 346.105469 67.175781 348.332031 64.640625 C 350.5625 62.109375 354.410156 61.804688 356.945312 64.035156 L 357.753906 64.742188 C 360.289062 66.972656 360.492188 70.820312 358.363281 73.355469 C 357.148438 74.773438 355.527344 75.378906 353.804688 75.378906 Z M 107.804688 65.859375 C 105.980469 65.859375 104.15625 65.046875 102.941406 63.425781 C 100.914062 60.691406 101.523438 56.941406 104.15625 54.914062 L 104.96875 54.308594 C 107.703125 52.28125 111.453125 52.890625 113.476562 55.625 C 115.503906 58.359375 114.898438 62.109375 112.160156 64.136719 L 111.351562 64.742188 C 110.234375 65.554688 109.019531 65.957031 107.703125 65.957031 Z M 330.09375 57.753906 C 328.980469 57.753906 327.867188 57.449219 326.851562 56.839844 L 326.042969 56.335938 C 323.207031 54.511719 322.394531 50.761719 324.21875 47.925781 C 326.042969 45.089844 329.792969 44.277344 332.628906 46.101562 L 333.539062 46.609375 C 336.378906 48.433594 337.1875 52.179688 335.363281 55.015625 C 334.25 56.839844 332.222656 57.855469 330.195312 57.855469 Z M 132.628906 50.050781 C 130.5 50.050781 128.371094 48.9375 127.257812 46.8125 C 125.636719 43.871094 126.75 40.125 129.789062 38.605469 L 130.703125 38.097656 C 133.640625 36.476562 137.390625 37.691406 138.910156 40.628906 C 140.53125 43.570312 139.3125 47.316406 136.375 48.835938 L 135.464844 49.34375 C 134.550781 49.851562 133.539062 50.050781 132.628906 50.050781 Z M 304.257812 43.769531 C 303.449219 43.769531 302.636719 43.570312 301.828125 43.265625 L 300.917969 42.859375 C 297.875 41.542969 296.457031 37.894531 297.773438 34.855469 C 299.09375 31.816406 302.738281 30.398438 305.78125 31.714844 L 306.691406 32.121094 C 309.730469 33.4375 311.148438 37.085938 309.730469 40.125 C 308.71875 42.351562 306.488281 43.769531 304.160156 43.769531 Z M 159.578125 38.097656 C 157.046875 38.097656 154.714844 36.578125 153.804688 34.046875 C 152.6875 30.90625 154.308594 27.359375 157.449219 26.246094 L 158.464844 25.941406 C 161.605469 24.824219 165.152344 26.546875 166.164062 29.6875 C 167.277344 32.828125 165.554688 36.375 162.414062 37.390625 L 161.503906 37.691406 C 160.792969 37.894531 160.1875 38.097656 159.476562 38.097656 Z M 276.601562 33.84375 C 276.09375 33.84375 275.484375 33.84375 274.980469 33.640625 L 273.964844 33.335938 C 270.722656 32.425781 268.796875 29.082031 269.710938 25.839844 C 270.621094 22.597656 273.964844 20.671875 277.207031 21.582031 L 278.222656 21.886719 C 281.464844 22.800781 283.386719 26.144531 282.476562 29.386719 C 281.765625 32.121094 279.335938 33.84375 276.601562 33.84375 Z M 188.046875 30.398438 C 185.210938 30.398438 182.679688 28.371094 182.070312 25.433594 C 181.460938 22.089844 183.589844 18.949219 186.933594 18.34375 L 187.945312 18.140625 C 191.289062 17.53125 194.429688 19.660156 195.039062 23.003906 C 195.648438 26.34375 193.519531 29.484375 190.175781 30.09375 L 189.164062 30.296875 C 188.757812 30.296875 188.351562 30.398438 188.046875 30.398438 Z M 247.722656 28.167969 C 247.523438 28.167969 247.21875 28.167969 247.015625 28.167969 L 246.003906 28.167969 C 242.660156 27.664062 240.226562 24.726562 240.632812 21.382812 C 241.039062 18.039062 243.976562 15.605469 247.320312 16.011719 L 248.332031 16.011719 C 251.675781 16.519531 254.105469 19.558594 253.703125 22.902344 C 253.296875 26.042969 250.765625 28.269531 247.625 28.269531 Z M 217.328125 26.953125 C 214.085938 26.953125 211.351562 24.421875 211.25 21.078125 C 211.148438 17.734375 213.78125 14.898438 217.125 14.796875 L 218.140625 14.796875 C 221.484375 14.59375 224.320312 17.226562 224.421875 20.671875 C 224.523438 24.015625 221.886719 26.851562 218.542969 26.953125 L 217.53125 26.953125 C 217.53125 26.953125 217.328125 26.953125 217.328125 26.953125 Z M 217.328125 26.953125 "/></g><path style=" stroke:none;fill-rule:nonzero;fill:#000000;fill-opacity:1;" d="M 105.222656 104.332031 C 101.082031 107.707031 101.738281 114.351562 105.003906 117.621094 L 211.96875 224.8125 L 105.003906 331.894531 C 101.191406 335.164062 101.082031 341.699219 104.566406 345.292969 C 108.160156 348.785156 114.695312 348.566406 118.070312 344.863281 L 225.042969 237.777344 L 332.007812 344.863281 C 335.273438 348.566406 341.921875 348.785156 345.40625 345.292969 C 349.003906 341.699219 348.785156 335.164062 345.082031 331.894531 L 238.109375 224.8125 L 345.082031 117.621094 C 348.898438 113.808594 348.675781 107.707031 344.757812 104.222656 C 340.9375 100.847656 335.601562 101.175781 332.007812 104.660156 L 225.042969 211.738281 L 118.074219 104.660156 C 113.824219 100.523438 108.8125 101.503906 105.222656 104.332031 Z M 105.222656 104.332031 "/></g></svg>