<svg xmlns="http://www.w3.org/2000/svg" xmlns:xlink="http://www.w3.org/1999/xlink" width="600" zoomAndPan="magnify" viewBox="0 0 450 449.999984" height="600" preserveAspectRatio="xMidYMid meet" version="1.2"><defs><clipPath id="7fb120bf94"><path d="M 20 14.59375 L 430.105469 14.59375 L 430.105469 435.34375 L 20 435.34375 Z M 20 14.59375 "/></clipPath><clipPath id="a61e57307b"><path d="M 54.273438 174 L 109 174 L 109 219 L 54.273438 219 Z M 54.273438 174 "/></clipPath><clipPath id="f746bca6ab"><path d="M 252 350 L 297 350 L 297 404.519531 L 252 404.519531 Z M 252 350 "/></clipPath><clipPath id="8815ca4bcc"><path d="M 189.441406 297 L 244 297 L 244 342 L 189.441406 342 Z M 189.441406 297 "/></clipPath></defs><g id="3913615a12"><g clip-rule="nonzero" clip-path="url(#7fb120bf94)"><path style=" stroke:none;fill-rule:nonzero;fill:#ffffff;fill-opacity:1;" d="M 217.519531 435.242188 C 217.519531 435.242188 217.320312 435.242188 217.320312 435.242188 L 216.304688 435.242188 C 212.960938 435.039062 210.328125 432.203125 210.53125 428.859375 C 210.632812 425.515625 213.570312 422.882812 216.914062 423.085938 L 217.925781 423.085938 C 221.269531 423.289062 223.902344 426.125 223.800781 429.46875 C 223.703125 432.710938 220.964844 435.34375 217.722656 435.34375 Z M 245.886719 434.230469 C 242.847656 434.230469 240.214844 431.898438 239.808594 428.757812 C 239.507812 425.414062 241.835938 422.476562 245.179688 422.070312 L 246.089844 422.070312 C 249.433594 421.566406 252.472656 423.996094 252.777344 427.339844 C 253.183594 430.683594 250.75 433.722656 247.410156 434.027344 L 246.292969 434.027344 C 246.089844 434.128906 245.886719 434.230469 245.6875 434.230469 Z M 188.242188 431.898438 C 187.835938 431.898438 187.53125 431.898438 187.128906 431.796875 L 186.113281 431.59375 C 182.769531 430.988281 180.644531 427.746094 181.351562 424.503906 C 181.960938 421.160156 185.203125 419.03125 188.445312 419.742188 L 189.355469 419.945312 C 192.699219 420.550781 194.828125 423.792969 194.21875 427.035156 C 193.710938 429.972656 191.078125 432 188.242188 432 Z M 274.863281 428.859375 C 272.128906 428.859375 269.695312 427.035156 268.988281 424.300781 C 268.175781 421.058594 270.101562 417.714844 273.34375 416.90625 L 274.257812 416.703125 C 277.496094 415.789062 280.839844 417.714844 281.753906 420.957031 C 282.664062 424.199219 280.738281 427.542969 277.496094 428.453125 L 276.484375 428.757812 C 275.976562 428.859375 275.472656 428.960938 274.964844 428.960938 Z M 159.875 424.300781 C 159.164062 424.300781 158.558594 424.199219 157.847656 423.996094 L 156.835938 423.691406 C 153.695312 422.578125 152.074219 419.03125 153.1875 415.890625 C 154.300781 412.75 157.847656 411.128906 160.988281 412.246094 L 161.902344 412.546875 C 165.042969 413.664062 166.761719 417.105469 165.546875 420.347656 C 164.636719 422.882812 162.304688 424.402344 159.773438 424.402344 Z M 302.726562 419.234375 C 300.394531 419.234375 298.164062 417.917969 297.152344 415.585938 C 295.835938 412.546875 297.152344 408.902344 300.292969 407.582031 L 301.207031 407.179688 C 304.246094 405.863281 307.890625 407.179688 309.207031 410.320312 C 310.527344 413.359375 309.207031 417.007812 306.066406 418.324219 L 305.15625 418.726562 C 304.347656 419.03125 303.535156 419.234375 302.726562 419.234375 Z M 132.925781 412.445312 C 131.914062 412.445312 131 412.246094 130.089844 411.738281 L 129.175781 411.230469 C 126.238281 409.609375 125.125 405.960938 126.746094 403.023438 C 128.367188 400.085938 132.011719 398.972656 134.953125 400.59375 L 135.863281 401.101562 C 138.800781 402.722656 139.914062 406.367188 138.394531 409.304688 C 137.28125 411.332031 135.152344 412.546875 133.027344 412.546875 Z M 328.761719 405.457031 C 326.734375 405.457031 324.8125 404.441406 323.59375 402.621094 C 321.773438 399.78125 322.683594 396.035156 325.519531 394.210938 L 326.332031 393.703125 C 329.167969 391.878906 332.914062 392.792969 334.738281 395.628906 C 336.5625 398.464844 335.652344 402.214844 332.816406 404.039062 L 331.902344 404.542969 C 330.890625 405.152344 329.773438 405.457031 328.660156 405.457031 Z M 108.105469 396.640625 C 106.886719 396.640625 105.570312 396.238281 104.457031 395.425781 L 103.644531 394.820312 C 101.011719 392.792969 100.402344 388.941406 102.429688 386.308594 C 104.457031 383.675781 108.304688 383.066406 110.941406 385.09375 L 111.75 385.699219 C 114.488281 387.726562 114.992188 391.476562 112.96875 394.210938 C 111.75 395.832031 109.925781 396.640625 108.105469 396.640625 Z M 352.46875 388.03125 C 350.746094 388.03125 349.023438 387.320312 347.808594 385.902344 C 345.578125 383.371094 345.882812 379.519531 348.519531 377.292969 L 349.226562 376.683594 C 351.761719 374.453125 355.609375 374.757812 357.839844 377.292969 C 360.066406 379.824219 359.761719 383.675781 357.230469 385.902344 L 356.421875 386.613281 C 355.304688 387.625 353.886719 388.03125 352.46875 388.03125 Z M 85.816406 377.394531 C 84.296875 377.394531 82.675781 376.785156 81.558594 375.570312 L 80.851562 374.859375 C 78.519531 372.429688 78.519531 368.578125 80.851562 366.25 C 83.28125 363.917969 87.132812 363.917969 89.460938 366.25 L 90.171875 366.957031 C 92.5 369.289062 92.5 373.136719 90.171875 375.570312 C 88.957031 376.785156 87.4375 377.394531 85.917969 377.394531 Z M 373.339844 367.261719 C 371.921875 367.261719 370.503906 366.753906 369.386719 365.742188 C 366.855469 363.511719 366.550781 359.664062 368.78125 357.128906 L 369.386719 356.421875 C 371.617188 353.886719 375.46875 353.585938 378 355.8125 C 380.53125 358.042969 380.835938 361.890625 378.609375 364.425781 L 377.898438 365.234375 C 376.683594 366.652344 374.960938 367.363281 373.339844 367.363281 Z M 66.566406 355.105469 C 64.742188 355.105469 62.917969 354.292969 61.703125 352.671875 L 61.09375 351.863281 C 59.070312 349.125 59.675781 345.378906 62.410156 343.351562 C 65.148438 341.324219 68.894531 341.933594 70.921875 344.667969 L 71.53125 345.480469 C 73.554688 348.214844 72.949219 351.964844 70.3125 353.988281 C 69.199219 354.800781 67.984375 355.207031 66.667969 355.207031 Z M 391.070312 343.757812 C 389.953125 343.757812 388.839844 343.453125 387.828125 342.742188 C 384.992188 340.921875 384.179688 337.171875 386.003906 334.335938 L 386.511719 333.523438 C 388.332031 330.6875 392.082031 329.878906 394.917969 331.699219 C 397.753906 333.523438 398.566406 337.273438 396.742188 340.109375 L 396.132812 341.023438 C 395.019531 342.84375 392.992188 343.757812 391.070312 343.757812 Z M 50.761719 330.382812 C 48.632812 330.382812 46.507812 329.269531 45.390625 327.242188 L 44.886719 326.332031 C 43.265625 323.394531 44.378906 319.644531 47.316406 318.125 C 50.253906 316.503906 54.003906 317.617188 55.523438 320.65625 L 56.03125 321.570312 C 57.648438 324.507812 56.535156 328.257812 53.597656 329.777344 C 52.6875 330.28125 51.671875 330.484375 50.660156 330.484375 Z M 405.253906 317.921875 C 404.441406 317.921875 403.53125 317.71875 402.71875 317.414062 C 399.679688 315.996094 398.363281 312.453125 399.679688 309.3125 L 400.085938 308.398438 C 401.503906 305.359375 405.050781 303.941406 408.089844 305.359375 C 411.128906 306.777344 412.546875 310.324219 411.128906 313.363281 L 410.722656 314.273438 C 409.710938 316.503906 407.480469 317.820312 405.152344 317.820312 Z M 38.605469 303.535156 C 36.171875 303.535156 33.84375 302.015625 32.929688 299.585938 L 32.523438 298.570312 C 31.410156 295.429688 33.03125 291.886719 36.171875 290.769531 C 39.3125 289.65625 42.859375 291.277344 43.972656 294.417969 L 44.277344 295.328125 C 45.390625 298.46875 43.871094 302.015625 40.628906 303.128906 C 39.921875 303.433594 39.210938 303.535156 38.503906 303.535156 Z M 415.585938 290.367188 C 414.980469 290.367188 414.472656 290.367188 413.863281 290.164062 C 410.621094 289.25 408.796875 285.804688 409.710938 282.664062 L 410.015625 281.753906 C 410.925781 278.511719 414.269531 276.6875 417.511719 277.601562 C 420.753906 278.511719 422.578125 281.855469 421.664062 285.097656 L 421.363281 286.109375 C 420.550781 288.746094 418.121094 290.464844 415.484375 290.464844 Z M 30.398438 275.269531 C 27.5625 275.269531 25.027344 273.34375 24.417969 270.507812 L 24.21875 269.496094 C 23.507812 266.253906 25.636719 263.011719 28.878906 262.300781 C 32.121094 261.59375 35.363281 263.71875 36.070312 266.960938 L 36.273438 267.875 C 36.984375 271.117188 34.855469 274.359375 31.613281 275.066406 C 31.207031 275.066406 30.800781 275.167969 30.296875 275.167969 Z M 421.867188 261.59375 C 421.5625 261.59375 421.261719 261.59375 420.957031 261.59375 C 417.613281 261.085938 415.28125 258.046875 415.789062 254.703125 L 415.789062 253.691406 C 416.398438 250.347656 419.4375 248.015625 422.78125 248.523438 C 426.125 249.03125 428.453125 252.070312 427.945312 255.414062 L 427.945312 256.425781 C 427.339844 259.464844 424.804688 261.59375 421.765625 261.59375 Z M 26.242188 245.992188 C 23.101562 245.992188 20.367188 243.558594 20.164062 240.316406 L 20.164062 239.304688 C 19.859375 235.960938 22.394531 233.023438 25.738281 232.820312 C 29.082031 232.617188 32.019531 235.148438 32.222656 238.492188 L 32.222656 239.507812 C 32.523438 242.851562 29.992188 245.789062 26.648438 245.992188 C 26.546875 245.992188 26.34375 245.992188 26.242188 245.992188 Z M 423.996094 232.109375 C 420.652344 232.109375 417.917969 229.375 417.917969 226.03125 L 417.917969 225.019531 C 417.917969 225.019531 417.917969 224.613281 417.917969 224.613281 C 417.917969 221.269531 420.652344 218.535156 423.996094 218.535156 C 427.339844 218.535156 430.074219 221.269531 430.074219 224.613281 L 430.074219 225.019531 C 430.074219 225.019531 430.074219 226.132812 430.074219 226.132812 C 430.074219 229.476562 427.339844 232.210938 423.996094 232.210938 Z M 26.140625 216.609375 C 26.039062 216.609375 25.839844 216.609375 25.738281 216.609375 C 22.394531 216.40625 19.859375 213.46875 20.0625 210.125 L 20.0625 209.113281 C 20.367188 205.769531 23.304688 203.238281 26.648438 203.539062 C 29.992188 203.742188 32.523438 206.679688 32.222656 210.023438 L 32.222656 211.039062 C 31.917969 214.28125 29.28125 216.710938 26.140625 216.710938 Z M 421.96875 202.324219 C 419.03125 202.324219 416.398438 200.097656 415.992188 197.058594 L 415.992188 196.042969 C 415.382812 192.699219 417.714844 189.660156 421.058594 189.15625 C 424.402344 188.648438 427.441406 190.976562 427.945312 194.320312 L 427.945312 195.335938 C 428.554688 198.679688 426.222656 201.71875 422.882812 202.222656 C 422.578125 202.222656 422.273438 202.222656 422.070312 202.222656 Z M 30.296875 187.433594 C 29.890625 187.433594 29.484375 187.433594 29.082031 187.332031 C 25.839844 186.621094 23.710938 183.378906 24.417969 180.136719 L 24.621094 179.125 C 25.332031 175.882812 28.574219 173.753906 31.816406 174.464844 C 35.058594 175.171875 37.183594 178.414062 36.476562 181.65625 L 36.273438 182.570312 C 35.664062 185.40625 33.132812 187.433594 30.296875 187.433594 Z M 415.992188 173.550781 C 413.359375 173.550781 410.925781 171.832031 410.117188 169.09375 L 409.8125 168.183594 C 408.898438 164.941406 410.722656 161.597656 413.964844 160.6875 C 417.207031 159.773438 420.550781 161.597656 421.460938 164.839844 L 421.765625 165.851562 C 422.679688 169.09375 420.855469 172.4375 417.613281 173.351562 C 417.003906 173.550781 416.5 173.550781 415.992188 173.550781 Z M 38.503906 159.167969 C 37.792969 159.167969 37.082031 159.066406 36.375 158.761719 C 33.234375 157.644531 31.613281 154.101562 32.726562 150.960938 L 33.132812 149.945312 C 34.347656 146.804688 37.792969 145.183594 40.933594 146.402344 C 44.074219 147.617188 45.695312 151.0625 44.480469 154.203125 L 44.175781 155.113281 C 43.265625 157.546875 40.933594 159.066406 38.503906 159.066406 Z M 405.960938 145.894531 C 403.632812 145.894531 401.402344 144.578125 400.390625 142.246094 L 399.984375 141.335938 C 398.566406 138.296875 399.984375 134.648438 403.023438 133.332031 C 406.0625 131.914062 409.710938 133.332031 411.027344 136.371094 L 411.433594 137.382812 C 412.851562 140.421875 411.433594 144.070312 408.394531 145.386719 C 407.582031 145.792969 406.773438 145.894531 405.960938 145.894531 Z M 50.558594 132.21875 C 49.546875 132.21875 48.632812 132.015625 47.722656 131.507812 C 44.785156 129.886719 43.667969 126.238281 45.289062 123.300781 L 45.796875 122.390625 C 47.417969 119.453125 51.066406 118.335938 54.003906 119.957031 C 56.941406 121.578125 58.054688 125.226562 56.433594 128.164062 L 55.929688 129.078125 C 54.8125 131.101562 52.6875 132.21875 50.558594 132.21875 Z M 391.980469 119.855469 C 389.953125 119.855469 388.03125 118.84375 386.8125 117.019531 L 386.308594 116.210938 C 384.484375 113.371094 385.292969 109.625 388.132812 107.800781 C 390.96875 105.976562 394.714844 106.789062 396.539062 109.625 L 397.046875 110.535156 C 398.871094 113.371094 398.058594 117.121094 395.222656 118.945312 C 394.210938 119.554688 393.09375 119.855469 391.980469 119.855469 Z M 66.363281 107.394531 C 65.148438 107.394531 63.832031 106.988281 62.714844 106.179688 C 59.980469 104.152344 59.472656 100.40625 61.5 97.667969 L 62.109375 96.859375 C 64.132812 94.226562 67.984375 93.617188 70.617188 95.644531 C 73.253906 97.667969 73.859375 101.519531 71.835938 104.152344 L 71.226562 104.964844 C 70.011719 106.585938 68.1875 107.394531 66.363281 107.394531 Z M 374.453125 96.25 C 372.730469 96.25 371.007812 95.542969 369.792969 94.125 L 369.1875 93.414062 C 366.957031 90.882812 367.261719 87.03125 369.792969 84.804688 C 372.328125 82.574219 376.175781 82.878906 378.40625 85.410156 L 379.113281 86.222656 C 381.34375 88.753906 381.039062 92.605469 378.40625 94.832031 C 377.289062 95.847656 375.871094 96.25 374.453125 96.25 Z M 85.613281 85.105469 C 84.09375 85.105469 82.472656 84.5 81.355469 83.28125 C 79.027344 80.953125 79.027344 77.101562 81.355469 74.671875 L 82.066406 73.960938 C 84.5 71.632812 88.246094 71.632812 90.679688 73.960938 C 93.007812 76.394531 93.007812 80.140625 90.679688 82.574219 L 89.96875 83.28125 C 88.753906 84.5 87.234375 85.105469 85.714844 85.105469 Z M 353.683594 75.378906 C 352.265625 75.378906 350.847656 74.875 349.632812 73.859375 L 348.921875 73.253906 C 346.390625 71.023438 346.085938 67.175781 348.316406 64.640625 C 350.542969 62.109375 354.394531 61.804688 356.925781 64.035156 L 357.738281 64.742188 C 360.269531 66.972656 360.472656 70.820312 358.34375 73.355469 C 357.128906 74.773438 355.507812 75.378906 353.785156 75.378906 Z M 107.800781 65.859375 C 105.976562 65.859375 104.152344 65.046875 102.9375 63.425781 C 100.910156 60.691406 101.519531 56.941406 104.152344 54.914062 L 104.964844 54.308594 C 107.699219 52.28125 111.445312 52.890625 113.472656 55.625 C 115.5 58.359375 114.890625 62.109375 112.15625 64.136719 L 111.347656 64.742188 C 110.230469 65.554688 109.015625 65.957031 107.699219 65.957031 Z M 330.078125 57.753906 C 328.964844 57.753906 327.851562 57.449219 326.835938 56.839844 L 326.027344 56.335938 C 323.191406 54.511719 322.378906 50.761719 324.203125 47.925781 C 326.027344 45.089844 329.773438 44.277344 332.613281 46.101562 L 333.523438 46.609375 C 336.359375 48.433594 337.171875 52.179688 335.347656 55.015625 C 334.234375 56.839844 332.207031 57.855469 330.179688 57.855469 Z M 132.621094 50.050781 C 130.492188 50.050781 128.367188 48.9375 127.25 46.8125 C 125.632812 43.871094 126.746094 40.125 129.785156 38.605469 L 130.695312 38.097656 C 133.632812 36.476562 137.382812 37.691406 138.902344 40.628906 C 140.523438 43.570312 139.308594 47.316406 136.371094 48.835938 L 135.457031 49.34375 C 134.546875 49.851562 133.535156 50.050781 132.621094 50.050781 Z M 304.246094 43.769531 C 303.433594 43.769531 302.625 43.570312 301.8125 43.265625 L 300.902344 42.859375 C 297.863281 41.542969 296.445312 37.894531 297.761719 34.855469 C 299.078125 31.816406 302.726562 30.398438 305.765625 31.714844 L 306.675781 32.121094 C 309.714844 33.4375 311.132812 37.085938 309.714844 40.125 C 308.703125 42.351562 306.472656 43.769531 304.144531 43.769531 Z M 159.570312 38.097656 C 157.039062 38.097656 154.707031 36.578125 153.796875 34.046875 C 152.679688 30.90625 154.300781 27.359375 157.441406 26.246094 L 158.457031 25.941406 C 161.597656 24.824219 165.144531 26.546875 166.15625 29.6875 C 167.269531 32.828125 165.546875 36.375 162.40625 37.390625 L 161.496094 37.691406 C 160.785156 37.894531 160.179688 38.097656 159.46875 38.097656 Z M 276.585938 33.84375 C 276.078125 33.84375 275.472656 33.84375 274.964844 33.640625 L 273.953125 33.335938 C 270.710938 32.425781 268.785156 29.082031 269.695312 25.839844 C 270.609375 22.597656 273.953125 20.671875 277.195312 21.582031 L 278.207031 21.886719 C 281.449219 22.800781 283.375 26.144531 282.460938 29.386719 C 281.753906 32.121094 279.320312 33.84375 276.585938 33.84375 Z M 188.039062 30.398438 C 185.203125 30.398438 182.667969 28.371094 182.0625 25.433594 C 181.453125 22.089844 183.582031 18.949219 186.925781 18.34375 L 187.9375 18.140625 C 191.28125 17.53125 194.421875 19.660156 195.03125 23.003906 C 195.636719 26.34375 193.511719 29.484375 190.167969 30.09375 L 189.152344 30.296875 C 188.75 30.296875 188.34375 30.398438 188.039062 30.398438 Z M 247.710938 28.167969 C 247.507812 28.167969 247.207031 28.167969 247.003906 28.167969 L 245.988281 28.167969 C 242.648438 27.664062 240.214844 24.726562 240.621094 21.382812 C 241.027344 18.039062 243.964844 15.605469 247.308594 16.011719 L 248.320312 16.011719 C 251.664062 16.519531 254.09375 19.558594 253.691406 22.902344 C 253.285156 26.042969 250.75 28.269531 247.609375 28.269531 Z M 217.320312 26.953125 C 214.078125 26.953125 211.339844 24.421875 211.238281 21.078125 C 211.136719 17.734375 213.773438 14.898438 217.117188 14.796875 L 218.128906 14.796875 C 221.472656 14.59375 224.308594 17.226562 224.410156 20.671875 C 224.511719 24.015625 221.878906 26.851562 218.535156 26.953125 L 217.519531 26.953125 C 217.519531 26.953125 217.320312 26.953125 217.320312 26.953125 Z M 217.320312 26.953125 "/></g><path style="fill:none;stroke-width:1;stroke-linecap:butt;stroke-linejoin:miter;stroke:#ffffff;stroke-opacity:1;stroke-miterlimit:4;" d="M -0.000388054 0.499145 L 10.76845 0.499145 " transform="matrix(0,1.025819,-1.025819,0,144.465158,226.305086)"/><path style=" stroke:none;fill-rule:evenodd;fill:#ffffff;fill-opacity:1;" d="M 199.351562 139.582031 C 198.855469 137.90625 197.550781 136.597656 195.875 136.105469 C 195.875 136.105469 152.1875 123.105469 116.246094 159.042969 C 98.53125 176.757812 80.101562 205.746094 78.6875 222.363281 C 78.554688 223.867188 79.097656 225.359375 80.171875 226.425781 L 109.03125 255.285156 C 110.097656 256.359375 111.585938 256.898438 113.09375 256.769531 C 129.710938 255.355469 158.699219 236.925781 176.414062 219.210938 C 212.351562 183.265625 199.351562 139.582031 199.351562 139.582031 Z M 190.160156 145.304688 C 191.984375 154.6875 195.453125 185.660156 169.15625 211.957031 C 153.914062 227.207031 129.765625 243.585938 114.5 246.253906 C 114.5 246.253906 89.203125 220.957031 89.203125 220.957031 C 91.878906 205.691406 108.25 181.542969 123.5 166.300781 C 149.796875 140.003906 180.777344 143.472656 190.152344 145.296875 Z M 190.160156 145.304688 "/><path style=" stroke:none;fill-rule:evenodd;fill:#ffffff;fill-opacity:1;" d="M 169.199219 166.257812 C 160.558594 157.621094 146.527344 157.621094 137.890625 166.257812 C 129.253906 174.894531 129.253906 188.929688 137.890625 197.566406 C 146.527344 206.203125 160.558594 206.203125 169.199219 197.566406 C 177.835938 188.929688 177.835938 174.894531 169.199219 166.257812 Z M 161.941406 173.515625 C 166.578125 178.152344 166.578125 185.675781 161.941406 190.3125 C 157.304688 194.949219 149.78125 194.949219 145.144531 190.3125 C 140.507812 185.675781 140.507812 178.152344 145.144531 173.515625 C 149.78125 168.878906 157.304688 168.878906 161.941406 173.515625 Z M 161.941406 173.515625 "/><path style=" stroke:none;fill-rule:evenodd;fill:#ffffff;fill-opacity:1;" d="M 140.472656 236.527344 L 98.929688 194.980469 C 96.933594 192.984375 93.675781 192.984375 91.679688 194.980469 C 89.675781 196.984375 89.675781 200.234375 91.679688 202.238281 L 133.21875 243.777344 C 135.222656 245.78125 138.472656 245.78125 140.472656 243.777344 C 142.472656 241.78125 142.472656 238.523438 140.472656 236.527344 Z M 140.472656 236.527344 "/><path style=" stroke:none;fill-rule:evenodd;fill:#ffffff;fill-opacity:1;" d="M 150.84375 231.960938 C 150.84375 231.960938 149.808594 243.261719 149.097656 251.09375 C 148.839844 253.953125 147.164062 256.484375 144.640625 257.84375 L 127.40625 267.125 C 127.40625 267.125 127.40625 251.660156 127.40625 251.660156 C 127.40625 248.832031 125.109375 246.53125 122.277344 246.53125 C 119.445312 246.53125 117.148438 248.832031 117.148438 251.660156 L 117.148438 275.714844 C 117.148438 277.519531 118.097656 279.195312 119.644531 280.117188 C 121.195312 281.042969 123.117188 281.089844 124.710938 280.226562 C 124.710938 280.226562 140.34375 271.808594 149.5 266.878906 C 155.0625 263.890625 158.746094 258.308594 159.316406 252.023438 C 160.027344 244.195312 161.058594 232.882812 161.058594 232.882812 C 161.3125 230.066406 159.234375 227.570312 156.414062 227.316406 C 153.589844 227.054688 151.09375 229.132812 150.84375 231.960938 Z M 150.84375 231.960938 "/><g clip-rule="nonzero" clip-path="url(#a61e57307b)"><path style=" stroke:none;fill-rule:evenodd;fill:#ffffff;fill-opacity:1;" d="M 102.574219 174.398438 C 102.574219 174.398438 91.261719 175.429688 83.433594 176.140625 C 77.148438 176.707031 71.566406 180.394531 68.578125 185.953125 C 63.648438 195.113281 55.230469 210.746094 55.230469 210.746094 C 54.367188 212.339844 54.414062 214.261719 55.339844 215.8125 C 56.261719 217.359375 57.9375 218.308594 59.742188 218.308594 L 83.792969 218.308594 C 86.625 218.308594 88.921875 216.011719 88.921875 213.179688 C 88.921875 210.347656 86.625 208.050781 83.792969 208.050781 L 68.332031 208.050781 L 77.613281 190.816406 C 78.972656 188.292969 81.503906 186.617188 84.363281 186.359375 C 92.191406 185.648438 103.496094 184.613281 103.496094 184.613281 C 106.320312 184.359375 108.402344 181.863281 108.140625 179.039062 C 107.886719 176.222656 105.390625 174.144531 102.574219 174.398438 Z M 102.574219 174.398438 "/></g><path style=" stroke:none;fill-rule:evenodd;fill:#ffffff;fill-opacity:1;" d="M 69.390625 234.757812 L 58.519531 245.628906 C 56.523438 247.632812 56.523438 250.882812 58.519531 252.886719 C 60.523438 254.882812 63.769531 254.882812 65.773438 252.886719 L 76.648438 242.011719 C 78.652344 240.007812 78.652344 236.761719 76.648438 234.757812 C 74.644531 232.753906 71.394531 232.753906 69.390625 234.757812 Z M 69.390625 234.757812 "/><path style=" stroke:none;fill-rule:evenodd;fill:#ffffff;fill-opacity:1;" d="M 81.421875 246.785156 L 60.925781 267.273438 C 58.921875 269.277344 58.921875 272.527344 60.925781 274.53125 C 62.929688 276.535156 66.179688 276.535156 68.183594 274.53125 L 88.671875 254.035156 C 90.675781 252.039062 90.675781 248.78125 88.671875 246.785156 C 86.671875 244.78125 83.417969 244.78125 81.421875 246.785156 Z M 81.421875 246.785156 "/><path style=" stroke:none;fill-rule:evenodd;fill:#ffffff;fill-opacity:1;" d="M 93.445312 258.808594 L 82.570312 269.683594 C 80.574219 271.6875 80.574219 274.933594 82.570312 276.9375 C 84.574219 278.933594 87.824219 278.933594 89.828125 276.9375 L 100.699219 266.0625 C 102.703125 264.058594 102.703125 260.8125 100.699219 258.808594 C 98.695312 256.804688 95.449219 256.804688 93.445312 258.808594 Z M 93.445312 258.808594 "/><path style=" stroke:none;fill-rule:evenodd;fill:#ffffff;fill-opacity:1;" d="M 357.804688 107.535156 C 357.3125 105.859375 356.007812 104.554688 354.332031 104.0625 C 354.332031 104.0625 310.644531 91.0625 274.699219 127 C 256.988281 144.710938 238.558594 173.703125 237.140625 190.320312 C 237.011719 191.824219 237.554688 193.316406 238.625 194.382812 L 267.484375 223.242188 C 268.554688 224.316406 270.042969 224.855469 271.546875 224.726562 C 288.167969 223.308594 317.15625 204.878906 334.867188 187.167969 C 370.808594 151.222656 357.804688 107.535156 357.804688 107.535156 Z M 348.613281 113.261719 C 350.441406 122.644531 353.90625 153.617188 327.613281 179.910156 C 312.371094 195.160156 288.222656 211.539062 272.957031 214.207031 C 272.957031 214.207031 247.660156 188.910156 247.660156 188.910156 C 250.335938 173.648438 266.707031 149.5 281.957031 134.253906 C 308.253906 107.960938 339.230469 111.429688 348.609375 113.253906 Z M 348.613281 113.261719 "/><path style=" stroke:none;fill-rule:evenodd;fill:#ffffff;fill-opacity:1;" d="M 327.652344 134.214844 C 319.015625 125.578125 304.984375 125.578125 296.347656 134.214844 C 287.707031 142.851562 287.707031 156.886719 296.347656 165.523438 C 304.984375 174.160156 319.015625 174.160156 327.652344 165.523438 C 336.292969 156.886719 336.292969 142.851562 327.652344 134.214844 Z M 320.398438 141.46875 C 325.035156 146.105469 325.035156 153.628906 320.398438 158.265625 C 315.761719 162.902344 308.238281 162.902344 303.601562 158.265625 C 298.964844 153.628906 298.964844 146.105469 303.601562 141.46875 C 308.238281 136.832031 315.761719 136.832031 320.398438 141.46875 Z M 320.398438 141.46875 "/><path style=" stroke:none;fill-rule:evenodd;fill:#ffffff;fill-opacity:1;" d="M 298.929688 204.484375 L 257.386719 162.9375 C 255.386719 160.941406 252.132812 160.941406 250.136719 162.9375 C 248.132812 164.941406 248.132812 168.191406 250.136719 170.195312 L 291.675781 211.730469 C 293.679688 213.734375 296.925781 213.734375 298.929688 211.730469 C 300.929688 209.734375 300.929688 206.480469 298.929688 204.484375 Z M 298.929688 204.484375 "/><path style=" stroke:none;fill-rule:evenodd;fill:#ffffff;fill-opacity:1;" d="M 309.296875 199.914062 C 309.296875 199.914062 308.265625 211.21875 307.554688 219.050781 C 307.292969 221.910156 305.621094 224.4375 303.097656 225.800781 L 285.863281 235.078125 C 285.863281 235.078125 285.863281 219.617188 285.863281 219.617188 C 285.863281 216.785156 283.5625 214.488281 280.734375 214.488281 C 277.902344 214.488281 275.605469 216.785156 275.605469 219.617188 L 275.605469 243.667969 C 275.605469 245.476562 276.554688 247.152344 278.101562 248.074219 C 279.652344 248.996094 281.574219 249.042969 283.167969 248.183594 C 283.167969 248.183594 298.800781 239.765625 307.957031 234.832031 C 313.519531 231.84375 317.203125 226.265625 317.773438 219.980469 C 318.484375 212.148438 319.515625 200.839844 319.515625 200.839844 C 319.769531 198.019531 317.691406 195.523438 314.871094 195.269531 C 312.046875 195.011719 309.550781 197.089844 309.296875 199.914062 Z M 309.296875 199.914062 "/><path style=" stroke:none;fill-rule:evenodd;fill:#ffffff;fill-opacity:1;" d="M 261.03125 142.351562 C 261.03125 142.351562 249.71875 143.386719 241.886719 144.097656 C 235.605469 144.664062 230.023438 148.351562 227.035156 153.910156 C 222.105469 163.066406 213.683594 178.699219 213.683594 178.699219 C 212.824219 180.292969 212.871094 182.214844 213.792969 183.769531 C 214.71875 185.3125 216.394531 186.265625 218.199219 186.265625 L 242.25 186.265625 C 245.082031 186.265625 247.378906 183.96875 247.378906 181.136719 C 247.378906 178.304688 245.082031 176.007812 242.25 176.007812 L 226.789062 176.007812 L 236.070312 158.773438 C 237.429688 156.25 239.960938 154.574219 242.820312 154.3125 C 250.648438 153.601562 261.953125 152.570312 261.953125 152.570312 C 264.777344 152.316406 266.855469 149.820312 266.597656 146.996094 C 266.34375 144.179688 263.847656 142.101562 261.03125 142.351562 Z M 261.03125 142.351562 "/><path style=" stroke:none;fill-rule:evenodd;fill:#ffffff;fill-opacity:1;" d="M 227.847656 202.710938 L 216.976562 213.585938 C 214.976562 215.589844 214.976562 218.835938 216.976562 220.839844 C 218.980469 222.839844 222.226562 222.839844 224.230469 220.839844 L 235.105469 209.96875 C 237.109375 207.964844 237.109375 204.714844 235.105469 202.710938 C 233.101562 200.707031 229.851562 200.707031 227.847656 202.710938 Z M 227.847656 202.710938 "/><path style=" stroke:none;fill-rule:evenodd;fill:#ffffff;fill-opacity:1;" d="M 239.878906 214.742188 L 219.382812 235.230469 C 217.378906 237.234375 217.378906 240.484375 219.382812 242.488281 C 221.386719 244.488281 224.632812 244.488281 226.636719 242.488281 L 247.128906 221.992188 C 249.132812 219.992188 249.132812 216.738281 247.128906 214.742188 C 245.128906 212.738281 241.875 212.738281 239.878906 214.742188 Z M 239.878906 214.742188 "/><path style=" stroke:none;fill-rule:evenodd;fill:#ffffff;fill-opacity:1;" d="M 251.902344 226.765625 L 241.027344 237.636719 C 239.03125 239.640625 239.03125 242.890625 241.027344 244.894531 C 243.03125 246.890625 246.277344 246.890625 248.28125 244.894531 L 259.15625 234.019531 C 261.160156 232.015625 261.160156 228.769531 259.15625 226.765625 C 257.152344 224.761719 253.90625 224.761719 251.902344 226.765625 Z M 251.902344 226.765625 "/><path style=" stroke:none;fill-rule:evenodd;fill:#ffffff;fill-opacity:1;" d="M 334.519531 262.914062 C 334.027344 261.238281 332.722656 259.933594 331.046875 259.441406 C 331.046875 259.441406 287.359375 246.441406 251.414062 282.378906 C 233.703125 300.089844 215.273438 329.082031 213.855469 345.699219 C 213.726562 347.203125 214.265625 348.695312 215.339844 349.761719 L 244.199219 378.621094 C 245.265625 379.695312 246.757812 380.234375 248.261719 380.105469 C 264.882812 378.6875 293.871094 360.257812 311.582031 342.546875 C 347.519531 306.601562 334.519531 262.914062 334.519531 262.914062 Z M 325.328125 268.640625 C 327.15625 278.023438 330.621094 308.996094 304.328125 335.289062 C 289.082031 350.539062 264.9375 366.917969 249.671875 369.585938 C 249.671875 369.585938 224.375 344.289062 224.375 344.289062 C 227.050781 329.027344 243.421875 304.878906 258.671875 289.632812 C 284.964844 263.339844 315.945312 266.808594 325.324219 268.632812 Z M 325.328125 268.640625 "/><path style=" stroke:none;fill-rule:evenodd;fill:#ffffff;fill-opacity:1;" d="M 304.367188 289.59375 C 295.730469 280.957031 281.699219 280.957031 273.058594 289.59375 C 264.421875 298.230469 264.421875 312.265625 273.058594 320.902344 C 281.699219 329.539062 295.730469 329.539062 304.367188 320.902344 C 313.003906 312.265625 313.003906 298.230469 304.367188 289.59375 Z M 297.113281 296.851562 C 301.75 301.488281 301.75 309.007812 297.113281 313.644531 C 292.476562 318.28125 284.953125 318.28125 280.316406 313.644531 C 275.679688 309.007812 275.679688 301.488281 280.316406 296.851562 C 284.953125 292.214844 292.476562 292.214844 297.113281 296.851562 Z M 297.113281 296.851562 "/><path style=" stroke:none;fill-rule:evenodd;fill:#ffffff;fill-opacity:1;" d="M 275.644531 359.863281 L 234.101562 318.316406 C 232.101562 316.320312 228.847656 316.320312 226.851562 318.316406 C 224.847656 320.320312 224.847656 323.570312 226.851562 325.574219 L 268.390625 367.113281 C 270.394531 369.113281 273.640625 369.113281 275.644531 367.113281 C 277.640625 365.113281 277.640625 361.859375 275.644531 359.863281 Z M 275.644531 359.863281 "/><g clip-rule="nonzero" clip-path="url(#f746bca6ab)"><path style=" stroke:none;fill-rule:evenodd;fill:#ffffff;fill-opacity:1;" d="M 286.011719 355.292969 C 286.011719 355.292969 284.980469 366.597656 284.269531 374.429688 C 284.007812 377.289062 282.332031 379.816406 279.808594 381.179688 L 262.578125 390.460938 C 262.578125 390.460938 262.578125 374.996094 262.578125 374.996094 C 262.578125 372.164062 260.277344 369.867188 257.449219 369.867188 C 254.617188 369.867188 252.316406 372.164062 252.316406 374.996094 L 252.316406 399.046875 C 252.316406 400.855469 253.269531 402.53125 254.8125 403.453125 C 256.367188 404.375 258.289062 404.421875 259.882812 403.5625 C 259.882812 403.5625 275.515625 395.144531 284.671875 390.210938 C 290.234375 387.222656 293.917969 381.644531 294.484375 375.359375 C 295.199219 367.527344 296.230469 356.21875 296.230469 356.21875 C 296.484375 353.398438 294.402344 350.902344 291.585938 350.652344 C 288.761719 350.390625 286.265625 352.46875 286.011719 355.292969 Z M 286.011719 355.292969 "/></g><g clip-rule="nonzero" clip-path="url(#8815ca4bcc)"><path style=" stroke:none;fill-rule:evenodd;fill:#ffffff;fill-opacity:1;" d="M 237.746094 297.730469 C 237.746094 297.730469 226.433594 298.765625 218.601562 299.476562 C 212.316406 300.042969 206.738281 303.730469 203.75 309.289062 C 198.820312 318.445312 190.398438 334.078125 190.398438 334.078125 C 189.539062 335.671875 189.585938 337.59375 190.507812 339.148438 C 191.433594 340.691406 193.109375 341.644531 194.914062 341.644531 L 218.964844 341.644531 C 221.796875 341.644531 224.09375 339.347656 224.09375 336.515625 C 224.09375 333.683594 221.796875 331.386719 218.964844 331.386719 L 203.503906 331.386719 L 212.78125 314.152344 C 214.144531 311.628906 216.675781 309.953125 219.53125 309.691406 C 227.363281 308.980469 238.667969 307.949219 238.667969 307.949219 C 241.492188 307.695312 243.570312 305.199219 243.3125 302.375 C 243.058594 299.558594 240.5625 297.480469 237.746094 297.730469 Z M 237.746094 297.730469 "/></g><path style=" stroke:none;fill-rule:evenodd;fill:#ffffff;fill-opacity:1;" d="M 204.5625 358.089844 L 193.6875 368.964844 C 191.691406 370.96875 191.691406 374.21875 193.6875 376.21875 C 195.691406 378.21875 198.941406 378.21875 200.945312 376.21875 L 211.820312 365.347656 C 213.824219 363.34375 213.824219 360.09375 211.820312 358.089844 C 209.816406 356.085938 206.566406 356.085938 204.5625 358.089844 Z M 204.5625 358.089844 "/><path style=" stroke:none;fill-rule:evenodd;fill:#ffffff;fill-opacity:1;" d="M 216.59375 370.121094 L 196.097656 390.609375 C 194.09375 392.613281 194.09375 395.863281 196.097656 397.867188 C 198.101562 399.871094 201.347656 399.871094 203.351562 397.867188 L 223.839844 377.371094 C 225.84375 375.371094 225.84375 372.117188 223.839844 370.121094 C 221.84375 368.117188 218.589844 368.117188 216.59375 370.121094 Z M 216.59375 370.121094 "/><path style=" stroke:none;fill-rule:evenodd;fill:#ffffff;fill-opacity:1;" d="M 228.613281 382.144531 L 217.742188 393.015625 C 215.746094 395.019531 215.746094 398.269531 217.742188 400.273438 C 219.746094 402.269531 222.992188 402.269531 224.996094 400.273438 L 235.871094 389.398438 C 237.875 387.394531 237.875 384.148438 235.871094 382.144531 C 233.867188 380.140625 230.617188 380.140625 228.613281 382.144531 Z M 228.613281 382.144531 "/></g></svg>