<?xml version="1.0" encoding="UTF-8"?>
<svg xmlns="http://www.w3.org/2000/svg" xmlns:xlink="http://www.w3.org/1999/xlink" width="600" zoomAndPan="magnify" viewBox="0 0 450 449.999984" height="600" preserveAspectRatio="xMidYMid meet" version="1.2">
<defs>
<clipPath id="da65485fcf"><path d="M 63.265625 264 L 76 264 L 76 277 L 63.265625 277 Z M 63.265625 264 "/></clipPath>
<clipPath id="284eea6d7d"><path d="M 374 263 L 386.515625 263 L 386.515625 277 L 374 277 Z M 374 263 "/></clipPath>
</defs>
<g id="ed16aa9c60">
<path style="fill:none;stroke-width:1;stroke-linecap:butt;stroke-linejoin:miter;stroke:#ffffff;stroke-opacity:1;stroke-miterlimit:4;" d="M -0.00014027 0.502065 L 10.765486 0.502065 " transform="matrix(0,0.75,-0.75,0,175.091392,207.95323)"/>
<path style=" stroke:none;fill-rule:nonzero;fill:#ffffff;fill-opacity:1;" d="M 128.625 392.460938 C 126.585938 395.433594 127.234375 399.140625 129.921875 401.371094 C 131.136719 402.113281 132.4375 402.492188 133.652344 402.492188 C 135.585938 402.492188 137.554688 401.558594 138.746094 399.882812 C 140.800781 397.109375 140.140625 393.203125 137.355469 391.148438 C 134.558594 389.109375 130.667969 389.664062 128.625 392.460938 Z M 128.625 392.460938 "/>
<path style=" stroke:none;fill-rule:nonzero;fill:#ffffff;fill-opacity:1;" d="M 133.179688 150.910156 C 134.488281 150.910156 135.785156 150.542969 136.90625 149.609375 C 139.679688 147.570312 140.328125 143.652344 138.203125 140.878906 C 136.246094 138.082031 132.246094 137.527344 129.476562 139.578125 C 126.679688 141.621094 126.125 145.515625 128.175781 148.3125 C 129.367188 149.976562 131.328125 150.910156 133.179688 150.910156 Z M 133.179688 150.910156 "/>
<path style=" stroke:none;fill-rule:nonzero;fill:#ffffff;fill-opacity:1;" d="M 178.953125 412.332031 C 175.722656 411.210938 172.179688 413.074219 171.0625 416.238281 C 170.058594 419.566406 171.804688 423.105469 175.15625 424.226562 C 175.722656 424.40625 176.464844 424.40625 177.019531 424.40625 C 179.71875 424.40625 182.113281 422.917969 182.953125 420.308594 C 184.074219 416.980469 182.210938 413.441406 178.953125 412.332031 Z M 178.953125 412.332031 "/>
<path style=" stroke:none;fill-rule:nonzero;fill:#ffffff;fill-opacity:1;" d="M 75.125 312.542969 C 71.890625 313.664062 70.027344 317.207031 71.148438 320.535156 C 71.960938 323.140625 74.476562 324.816406 77.082031 324.816406 C 77.730469 324.816406 78.378906 324.816406 79.039062 324.441406 C 82.273438 323.53125 84.042969 319.992188 83.039062 316.640625 C 82.015625 313.289062 78.378906 311.445312 75.125 312.542969 Z M 75.125 312.542969 "/>
<g clip-rule="nonzero" clip-path="url(#da65485fcf)">
<path style=" stroke:none;fill-rule:nonzero;fill:#ffffff;fill-opacity:1;" d="M 75.609375 270.558594 C 75.609375 267.039062 72.90625 264.242188 69.390625 264.242188 C 65.945312 264.242188 63.171875 267.039062 63.171875 270.558594 C 63.171875 274.097656 65.945312 276.871094 69.484375 276.707031 C 72.90625 276.707031 75.703125 273.910156 75.609375 270.558594 Z M 75.609375 270.558594 "/>
</g>
<path style=" stroke:none;fill-rule:nonzero;fill:#ffffff;fill-opacity:1;" d="M 95.570312 356.785156 C 92.679688 358.828125 92.125 362.722656 94.164062 365.519531 C 95.472656 367.171875 97.328125 368.101562 99.191406 368.101562 C 100.488281 368.101562 101.796875 367.738281 102.894531 366.804688 C 105.785156 364.941406 106.339844 360.84375 104.300781 358.074219 C 102.246094 355.277344 98.351562 354.722656 95.570312 356.785156 Z M 95.570312 356.785156 "/>
<path style=" stroke:none;fill-rule:nonzero;fill:#ffffff;fill-opacity:1;" d="M 98.824219 185.285156 C 100.761719 185.285156 102.730469 184.351562 103.921875 182.675781 C 105.972656 179.902344 105.3125 175.996094 102.53125 173.945312 C 99.734375 171.902344 95.828125 172.457031 93.800781 175.429688 C 91.746094 178.226562 92.40625 182.132812 95.191406 184.164062 C 96.3125 184.90625 97.609375 185.285156 98.824219 185.285156 Z M 98.824219 185.285156 "/>
<path style=" stroke:none;fill-rule:nonzero;fill:#ffffff;fill-opacity:1;" d="M 74.957031 228.394531 C 75.609375 228.570312 76.257812 228.757812 76.894531 228.757812 C 79.5 228.757812 82.015625 227.082031 82.851562 224.476562 C 83.960938 221.148438 82.109375 217.605469 78.757812 216.496094 C 75.5 215.375 71.960938 217.242188 70.960938 220.570312 C 69.933594 223.730469 71.703125 227.460938 74.957031 228.394531 Z M 74.957031 228.394531 "/>
<path style=" stroke:none;fill-rule:nonzero;fill:#ffffff;fill-opacity:1;" d="M 345.769531 357.882812 C 343.632812 360.855469 344.28125 364.773438 347.160156 366.804688 C 348.28125 367.546875 349.484375 367.925781 350.792969 367.925781 C 352.730469 367.925781 354.59375 366.992188 355.890625 365.316406 C 357.851562 362.519531 357.285156 358.613281 354.40625 356.585938 C 351.703125 354.53125 347.726562 355.109375 345.769531 357.882812 Z M 345.769531 357.882812 "/>
<path style=" stroke:none;fill-rule:nonzero;fill:#ffffff;fill-opacity:1;" d="M 350.40625 184.539062 C 351.703125 184.539062 353.011719 184.351562 354.109375 183.417969 C 356.8125 181.378906 357.460938 177.296875 355.515625 174.6875 L 355.417969 174.6875 C 353.460938 171.914062 349.460938 171.171875 346.785156 173.199219 C 343.894531 175.253906 343.339844 179.324219 345.296875 182.121094 C 346.605469 183.796875 348.472656 184.539062 350.40625 184.539062 Z M 350.40625 184.539062 "/>
<path style=" stroke:none;fill-rule:nonzero;fill:#ffffff;fill-opacity:1;" d="M 225.023438 419.566406 C 221.601562 419.566406 218.804688 422.363281 218.804688 425.878906 C 218.804688 429.230469 221.601562 432.027344 225.023438 432.027344 C 228.5625 432.027344 231.238281 429.230469 231.238281 425.878906 C 231.238281 422.363281 228.46875 419.566406 225.023438 419.566406 Z M 225.023438 419.566406 "/>
<g clip-rule="nonzero" clip-path="url(#284eea6d7d)">
<path style=" stroke:none;fill-rule:nonzero;fill:#ffffff;fill-opacity:1;" d="M 380.40625 263.324219 C 376.984375 263.324219 374.1875 266.097656 374.1875 269.636719 C 374.1875 269.8125 374.1875 269.8125 374.1875 270.003906 C 374.1875 270.191406 374.1875 270.191406 374.1875 270.191406 C 374.1875 273.707031 376.984375 276.503906 380.40625 276.503906 C 383.945312 276.503906 386.625 273.707031 386.625 270.191406 L 386.625 270.003906 C 386.625 269.8125 386.625 269.636719 386.625 269.636719 C 386.625 266.109375 383.839844 263.324219 380.40625 263.324219 Z M 380.40625 263.324219 "/>
</g>
<path style=" stroke:none;fill-rule:nonzero;fill:#ffffff;fill-opacity:1;" d="M 374.828125 312.378906 C 371.5 311.257812 367.960938 313.121094 366.839844 316.285156 C 365.835938 319.613281 367.582031 323.152344 370.933594 324.273438 C 371.582031 324.453125 372.242188 324.453125 372.796875 324.453125 C 375.476562 324.453125 377.988281 322.800781 378.824219 320.191406 C 379.945312 316.828125 378.082031 313.289062 374.828125 312.378906 Z M 374.828125 312.378906 "/>
<path style=" stroke:none;fill-rule:nonzero;fill:#ffffff;fill-opacity:1;" d="M 372.703125 227.828125 C 373.351562 227.828125 374 227.648438 374.660156 227.460938 C 377.894531 226.527344 379.757812 222.988281 378.636719 219.660156 C 378.566406 219.660156 378.566406 219.660156 378.566406 219.660156 C 377.539062 216.308594 374 214.445312 370.746094 215.566406 C 367.417969 216.675781 365.648438 220.203125 366.746094 223.554688 C 367.582031 226.152344 370.09375 227.828125 372.703125 227.828125 Z M 372.703125 227.828125 "/>
<path style=" stroke:none;fill-rule:nonzero;fill:#ffffff;fill-opacity:1;" d="M 271.1875 412.144531 C 267.835938 413.253906 266.089844 416.78125 267.09375 420.132812 C 268.023438 422.71875 270.441406 424.394531 273.144531 424.394531 C 273.792969 424.394531 274.347656 424.394531 274.984375 424.214844 C 278.335938 422.90625 280.105469 419.554688 279.078125 416.226562 C 278.050781 412.886719 274.441406 411.210938 271.1875 412.144531 Z M 271.1875 412.144531 "/>
<path style=" stroke:none;fill-rule:nonzero;fill:#ffffff;fill-opacity:1;" d="M 312.710938 390.949219 C 309.917969 393.003906 309.269531 396.910156 311.402344 399.683594 C 312.523438 401.359375 314.46875 402.289062 316.429688 402.289062 C 317.726562 402.289062 318.941406 401.925781 320.039062 401.179688 C 322.929688 399.128906 323.578125 395.03125 321.441406 392.257812 C 319.484375 389.460938 315.484375 388.917969 312.710938 390.949219 Z M 312.710938 390.949219 "/>
<path style=" stroke:none;fill-rule:nonzero;fill:#ffffff;fill-opacity:1;" d="M 315.863281 150.164062 C 317.902344 150.164062 319.769531 149.421875 320.960938 147.746094 C 323.011719 144.972656 322.363281 141.066406 319.566406 139.011719 C 316.792969 136.972656 312.867188 137.527344 310.835938 140.324219 C 308.796875 143.097656 309.445312 147.191406 312.230469 149.054688 C 313.363281 149.976562 314.648438 150.164062 315.863281 150.164062 Z M 315.863281 150.164062 "/>
<path style=" stroke:none;fill-rule:nonzero;fill:#ffffff;fill-opacity:1;" d="M 286.617188 190.3125 C 300.445312 66 231.839844 21.925781 228.277344 19.742188 C 225.082031 17.78125 222.0625 19.363281 221.601562 19.742188 C 218.0625 21.972656 149.339844 65.988281 163.261719 190.3125 C 99.179688 242.707031 121.191406 312 121.476562 312.554688 C 122.125 314.796875 123.988281 316.460938 126.207031 316.839844 C 126.585938 316.839844 126.949219 317.027344 127.410156 317.027344 C 129.179688 317.027344 130.949219 316.097656 132.164062 314.609375 C 148.691406 294.914062 170.789062 291.375 182.953125 291.183594 L 171.640625 313.867188 C 170.613281 315.707031 170.707031 318.125 171.816406 319.992188 C 173.03125 321.855469 174.976562 322.964844 177.21875 322.964844 L 272.683594 322.964844 C 274.832031 322.964844 276.777344 321.855469 277.992188 319.992188 C 279.101562 318.125 279.195312 315.707031 278.167969 313.867188 L 266.855469 291.183594 C 279.007812 291.375 301.210938 294.914062 317.644531 314.609375 C 318.859375 316.097656 320.628906 317.027344 322.480469 317.027344 C 322.859375 317.027344 323.222656 316.839844 323.601562 316.839844 C 325.925781 316.460938 327.695312 314.796875 328.4375 312.554688 C 328.59375 311.988281 350.6875 242.707031 286.617188 190.3125 Z M 252.535156 279.113281 L 197.355469 279.113281 C 185.652344 246.023438 179.058594 217.050781 175.992188 191.410156 C 175.992188 191.410156 175.992188 191.21875 175.898438 191.042969 C 171.261719 151.273438 175.25 120.4375 182.882812 96.660156 L 267.007812 96.660156 C 274.640625 120.4375 278.628906 151.285156 273.898438 191.042969 C 273.898438 191.21875 273.898438 191.410156 273.898438 191.410156 C 270.832031 216.863281 264.128906 246.035156 252.535156 279.113281 Z M 224.929688 32.734375 C 232.265625 38.140625 249.914062 53.929688 262.457031 84.199219 L 187.425781 84.199219 C 199.859375 53.929688 217.613281 38.140625 224.929688 32.734375 Z M 130.949219 298.066406 C 128.082031 279.289062 127.597656 239.542969 165.222656 204.96875 C 168.640625 227.070312 174.789062 251.605469 183.980469 278.734375 C 171.640625 278.734375 149.613281 281.53125 130.949219 298.066406 Z M 187.328125 310.324219 L 196.804688 291.75 L 252.992188 291.75 L 262.46875 310.324219 Z M 318.929688 298.066406 C 300.171875 281.695312 278.242188 278.734375 265.804688 278.734375 C 275.089844 251.605469 281.214844 227.082031 284.660156 204.96875 C 322.28125 239.542969 321.796875 279.289062 318.929688 298.066406 Z M 318.929688 298.066406 "/>
<path style=" stroke:none;fill-rule:nonzero;fill:#ffffff;fill-opacity:1;" d="M 224.855469 128.050781 C 209.332031 128.050781 196.707031 140.878906 196.707031 156.300781 C 196.707031 171.902344 209.34375 184.339844 224.855469 184.339844 C 240.359375 184.339844 253.089844 171.902344 253.089844 156.300781 C 253.078125 140.878906 240.359375 128.050781 224.855469 128.050781 Z M 224.855469 171.914062 C 216.199219 171.914062 209.238281 164.855469 209.238281 156.3125 C 209.238281 147.582031 216.199219 140.6875 224.855469 140.6875 C 233.492188 140.6875 240.546875 147.582031 240.546875 156.3125 C 240.546875 164.84375 233.492188 171.914062 224.855469 171.914062 Z M 224.855469 171.914062 "/>
<path style=" stroke:none;fill-rule:nonzero;fill:#ffffff;fill-opacity:1;" d="M 224.929688 392.8125 C 228.371094 392.8125 231.167969 390.039062 231.167969 386.5 L 231.167969 351.570312 C 231.167969 348.054688 228.371094 345.257812 224.929688 345.257812 C 221.507812 345.257812 218.617188 348.054688 218.617188 351.570312 L 218.617188 386.5 C 218.617188 390.039062 221.507812 392.8125 224.929688 392.8125 Z M 224.929688 392.8125 "/>
<path style=" stroke:none;fill-rule:nonzero;fill:#ffffff;fill-opacity:1;" d="M 256.238281 356.207031 C 252.792969 356.207031 249.925781 359.003906 249.925781 362.519531 L 249.925781 397.640625 C 249.925781 400.992188 252.792969 403.765625 256.238281 403.765625 C 259.683594 403.765625 262.457031 400.992188 262.457031 397.640625 L 262.457031 362.519531 C 262.457031 359.003906 259.683594 356.207031 256.238281 356.207031 Z M 256.238281 356.207031 "/>
<path style=" stroke:none;fill-rule:nonzero;fill:#ffffff;fill-opacity:1;" d="M 193.640625 334.105469 C 190.195312 334.105469 187.425781 336.902344 187.425781 340.417969 L 187.425781 375.347656 C 187.425781 378.890625 190.195312 381.664062 193.640625 381.664062 C 197.085938 381.664062 199.859375 378.890625 199.859375 375.347656 L 199.859375 340.417969 C 199.859375 336.902344 197.085938 334.105469 193.640625 334.105469 Z M 193.640625 334.105469 "/>
</g>
</svg>