<svg xmlns="http://www.w3.org/2000/svg" xmlns:xlink="http://www.w3.org/1999/xlink" width="600" zoomAndPan="magnify" viewBox="0 0 450 449.999984" height="600" preserveAspectRatio="xMidYMid meet" version="1.2"><defs><clipPath id="6ff7f0b71a"><path d="M 195.464844 20.230469 L 254.535156 20.230469 L 254.535156 121 L 195.464844 121 Z M 195.464844 20.230469 "/></clipPath><clipPath id="2fcbd65f03"><path d="M 225 20.230469 L 254.535156 120.890625 L 195.464844 120.890625 Z M 225 20.230469 "/></clipPath><clipPath id="dec4678e93"><path d="M 195.464844 123.027344 L 254.535156 123.027344 L 254.535156 321 L 195.464844 321 Z M 195.464844 123.027344 "/></clipPath><clipPath id="7781f1f2c4"><path d="M 195.464844 323.253906 L 254.535156 323.253906 L 254.535156 328.753906 L 195.464844 328.753906 Z M 195.464844 323.253906 "/></clipPath><clipPath id="b2c94c279a"><path d="M 187.46875 333.453125 L 262.46875 333.453125 L 262.46875 423.453125 L 187.46875 423.453125 Z M 187.46875 333.453125 "/></clipPath></defs><g id="3818dc54e1"><g clip-rule="nonzero" clip-path="url(#6ff7f0b71a)"><g clip-rule="nonzero" clip-path="url(#2fcbd65f03)"><path style=" stroke:none;fill-rule:nonzero;fill:#737373;fill-opacity:1;" d="M 195.464844 20.230469 L 254.535156 20.230469 L 254.535156 120.832031 L 195.464844 120.832031 Z M 195.464844 20.230469 "/></g></g><g clip-rule="nonzero" clip-path="url(#dec4678e93)"><path style=" stroke:none;fill-rule:nonzero;fill:#737373;fill-opacity:1;" d="M 195.464844 123.027344 L 254.535156 123.027344 L 254.535156 320.996094 L 195.464844 320.996094 Z M 195.464844 123.027344 "/></g><g clip-rule="nonzero" clip-path="url(#7781f1f2c4)"><path style=" stroke:none;fill-rule:nonzero;fill:#737373;fill-opacity:1;" d="M 195.464844 323.253906 L 254.535156 323.253906 L 254.535156 328.753906 L 195.464844 328.753906 Z M 195.464844 323.253906 "/></g><g clip-rule="nonzero" clip-path="url(#b2c94c279a)"><path style=" stroke:none;fill-rule:nonzero;fill:#737373;fill-opacity:1;" d="M 262.46875 365.308594 C 262.46875 373.839844 260.164062 380.757812 256.472656 386.0625 C 256.472656 375.570312 253.9375 371.878906 248.402344 371.878906 C 244.714844 371.878906 240.910156 374.648438 240.910156 379.375 C 240.910156 383.640625 243.789062 391.363281 243.789062 399.664062 C 243.789062 407.964844 241.023438 416.84375 229.726562 423.417969 C 232.261719 416.730469 233.300781 411.078125 233.300781 406.46875 C 233.300781 394.246094 225.921875 388.710938 219.347656 388.710938 C 214.046875 388.710938 208.511719 392.171875 208.511719 402.203125 C 204.9375 398.28125 203.324219 393.785156 203.324219 389.289062 C 203.324219 382.140625 207.242188 375.800781 207.242188 370.035156 C 207.242188 365.308594 203.4375 362.539062 199.75 362.539062 C 193.175781 362.539062 191.214844 368.421875 191.214844 378.105469 C 189.257812 374.761719 187.527344 368.191406 187.527344 362.539062 C 187.527344 345.707031 203.4375 333.488281 221.191406 333.488281 C 206.203125 339.136719 203.4375 346.628906 203.4375 355.046875 C 207.128906 348.476562 210.933594 347.550781 212.777344 347.550781 C 224.074219 347.550781 211.855469 369.113281 231.570312 384.101562 C 228.339844 377.183594 227.074219 371.1875 227.074219 366.34375 C 227.074219 355.96875 232.722656 350.320312 238.140625 350.320312 C 242.753906 350.320312 247.363281 354.007812 249.210938 361.847656 C 249.210938 350.894531 245.980469 340.519531 231.570312 333.488281 C 254.050781 337.175781 262.46875 351.242188 262.46875 365.308594 Z M 262.46875 365.308594 "/></g></g></svg>